NotoSansMono-CondensedSemiBold.ufo
<glyph name="Q" format="2">
  <advance width="500"/>
  <unicode hex="0051"/>
  <anchor x="250" y="-220" name="bottom"/>
  <anchor x="250" y="714" name="top"/>
  <anchor x="500" y="714" name="topright"/>
  <anchor x="250" y="357" name="center"/>
  <anchor x="248" y="10" name="ogonek"/>
  <anchor x="20" y="714" name="topleft"/>
  <outline>
    <contour>
      <point x="336" y="-180" type="line"/>
      <point x="480" y="-180" type="line"/>
      <point x="375" y="93" type="line"/>
      <point x="271" y="28" type="line"/>
    </contour>
    <component base="O"/>
  </outline>
</glyph>
<glyph name="asciitilde" format="2">
  <advance width="500"/>
  <unicode hex="007E"/>
  <outline>
    <contour>
      <point x="45" y="272" type="line"/>
      <point x="79" y="310"/>
      <point x="112" y="331"/>
      <point x="142" y="331" type="curve" smooth="yes"/>
      <point x="171" y="331"/>
      <point x="202" y="321"/>
      <point x="236" y="304" type="curve" smooth="yes"/>
      <point x="276" y="284"/>
      <point x="307" y="274"/>
      <point x="348" y="274" type="curve" smooth="yes"/>
      <point x="390" y="274"/>
      <point x="426" y="291"/>
      <point x="454" y="325" type="curve"/>
      <point x="454" y="433" type="line"/>
      <point x="425" y="397"/>
      <point x="387" y="374"/>
      <point x="357" y="374" type="curve" smooth="yes"/>
      <point x="329" y="374"/>
      <point x="299" y="383"/>
      <point x="263" y="401" type="curve" smooth="yes"/>
      <point x="226" y="419"/>
      <point x="192" y="432"/>
      <point x="152" y="432" type="curve" smooth="yes"/>
      <point x="109" y="432"/>
      <point x="74" y="414"/>
      <point x="45" y="380" type="curve"/>
    </contour>
  </outline>
</glyph>
<glyph name="acute" format="2">
  <advance width="500"/>
  <unicode hex="00B4"/>
  <outline>
    <contour>
      <point x="176" y="606" type="line"/>
      <point x="262" y="606" type="line"/>
      <point x="307" y="648"/>
      <point x="373" y="718"/>
      <point x="400" y="757" type="curve"/>
      <point x="400" y="766" type="line"/>
      <point x="259" y="766" type="line"/>
      <point x="238" y="721"/>
      <point x="211" y="672"/>
      <point x="176" y="619" type="curve"/>
    </contour>
  </outline>
</glyph>
<glyph name="Oslash" format="2">
  <advance width="500"/>
  <unicode hex="00D8"/>
  <anchor x="250" y="0" name="bottom"/>
  <anchor x="250" y="714" name="top"/>
  <anchor x="250" y="357" name="center"/>
  <anchor x="248" y="10" name="ogonek"/>
  <anchor x="20" y="714" name="topleft"/>
  <anchor x="500" y="714" name="topright"/>
  <outline>
    <contour>
      <point x="88" y="-51" type="line"/>
      <point x="471" y="724" type="line"/>
      <point x="406" y="755" type="line"/>
      <point x="22" y="-20" type="line"/>
    </contour>
    <component base="O"/>
  </outline>
</glyph>
<glyph name="eogonek" format="2">
  <advance width="500"/>
  <unicode hex="0119"/>
  <anchor x="260" y="-234" name="bottom"/>
  <anchor x="250" y="546" name="top"/>
  <anchor x="258" y="10" name="ogonek"/>
  <anchor x="480" y="546" name="topright"/>
  <outline>
    <contour>
      <point x="375" y="-234" type="curve" smooth="yes"/>
      <point x="402" y="-234"/>
      <point x="423" y="-229"/>
      <point x="436" y="-222" type="curve"/>
      <point x="436" y="-143" type="line"/>
      <point x="428" y="-147"/>
      <point x="417" y="-151"/>
      <point x="403" y="-151" type="curve" smooth="yes"/>
      <point x="373" y="-151"/>
      <point x="359" y="-135"/>
      <point x="359" y="-99" type="curve" smooth="yes"/>
      <point x="359" y="-53"/>
      <point x="381" y="-14"/>
      <point x="438" y="29" type="curve"/>
      <point x="373" y="44" type="line"/>
      <point x="321" y="6"/>
      <point x="263" y="-40"/>
      <point x="263" y="-124" type="curve" smooth="yes"/>
      <point x="263" y="-190"/>
      <point x="299" y="-234"/>
    </contour>
    <component base="e"/>
  </outline>
</glyph>
<glyph name="Lslash" format="2">
  <advance width="500"/>
  <unicode hex="0141"/>
  <anchor x="297" y="0" name="bottom"/>
  <anchor x="164" y="714" name="top"/>
  <anchor x="280" y="357" name="center"/>
  <anchor x="399" y="714" name="topright"/>
  <outline>
    <contour>
      <point x="53" y="210" type="line"/>
      <point x="364" y="440" type="line"/>
      <point x="305" y="517" type="line"/>
      <point x="-7" y="291" type="line"/>
    </contour>
    <component base="L" xOffset="30"/>
  </outline>
</glyph>
<glyph name="eng" format="2">
  <advance width="500"/>
  <unicode hex="014B"/>
  <anchor x="251" y="-240" name="bottom"/>
  <anchor x="260" y="546" name="top"/>
  <anchor x="480" y="546" name="topright"/>
  <outline>
    <contour>
      <point x="302" y="-240" type="curve" smooth="yes"/>
      <point x="411" y="-240"/>
      <point x="460" y="-163"/>
      <point x="460" y="-63" type="curve" smooth="yes"/>
      <point x="460" y="245" type="line"/>
      <point x="332" y="218" type="line"/>
      <point x="332" y="-57" type="line" smooth="yes"/>
      <point x="332" y="-109"/>
      <point x="315" y="-133"/>
      <point x="278" y="-133" type="curve" smooth="yes"/>
      <point x="265" y="-133"/>
      <point x="247" y="-130"/>
      <point x="229" y="-124" type="curve"/>
      <point x="229" y="-229" type="line"/>
      <point x="253" y="-237"/>
      <point x="281" y="-240"/>
    </contour>
    <component base="n"/>
  </outline>
</glyph>
<glyph name="tbar" format="2">
  <advance width="500"/>
  <unicode hex="0167"/>
  <anchor x="285" y="0" name="bottom"/>
  <anchor x="229" y="682" name="top"/>
  <anchor x="205" y="282" name="center"/>
  <anchor x="480" y="682" name="topright"/>
  <outline>
    <contour>
      <point x="30" y="246" type="line"/>
      <point x="465" y="246" type="line"/>
      <point x="465" y="334" type="line"/>
      <point x="30" y="334" type="line"/>
    </contour>
    <component base="t"/>
  </outline>
</glyph>
<glyph name="uni018C" format="2">
  <advance width="500"/>
  <unicode hex="018C"/>
  <anchor x="250" y="0" name="bottom"/>
  <anchor x="270" y="761" name="top"/>
  <anchor x="250" y="273" name="center"/>
  <anchor x="480" y="761" name="topright"/>
  <outline>
    <contour>
      <point x="85" y="651" type="line"/>
      <point x="394" y="651" type="line"/>
      <point x="394" y="760" type="line"/>
      <point x="85" y="760" type="line"/>
    </contour>
    <component base="d"/>
  </outline>
</glyph>
<glyph name="uni0191" format="2">
  <advance width="500"/>
  <unicode hex="0191"/>
  <anchor x="149" y="0" name="bottom"/>
  <anchor x="339" y="714" name="top"/>
  <anchor x="499" y="714" name="topright"/>
  <outline>
    <contour>
      <point x="141" y="-14" type="curve" smooth="yes"/>
      <point x="243" y="-14"/>
      <point x="313" y="53"/>
      <point x="313" y="178" type="curve" smooth="yes"/>
      <point x="313" y="311" type="line"/>
      <point x="463" y="311" type="line"/>
      <point x="463" y="430" type="line"/>
      <point x="313" y="430" type="line"/>
      <point x="313" y="595" type="line"/>
      <point x="480" y="595" type="line"/>
      <point x="480" y="714" type="line"/>
      <point x="185" y="714" type="line"/>
      <point x="185" y="178" type="line" smooth="yes"/>
      <point x="185" y="132"/>
      <point x="173" y="96"/>
      <point x="140" y="96" type="curve" smooth="yes"/>
      <point x="120" y="96"/>
      <point x="107" y="110"/>
      <point x="107" y="129" type="curve" smooth="yes"/>
      <point x="107" y="139"/>
      <point x="108" y="147"/>
      <point x="112" y="156" type="curve"/>
      <point x="-2" y="192" type="line"/>
      <point x="-10" y="176"/>
      <point x="-17" y="151"/>
      <point x="-17" y="119" type="curve" smooth="yes"/>
      <point x="-17" y="41"/>
      <point x="34" y="-14"/>
    </contour>
  </outline>
</glyph>
<glyph name="florin" format="2">
  <advance width="500"/>
  <unicode hex="0192"/>
  <anchor x="179" y="0" name="bottom"/>
  <anchor x="331" y="765" name="top"/>
  <anchor x="500" y="765" name="topright"/>
  <outline>
    <contour>
      <point x="170" y="-15" type="curve" smooth="yes"/>
      <point x="276" y="-15"/>
      <point x="333" y="39"/>
      <point x="333" y="147" type="curve" smooth="yes"/>
      <point x="333" y="432" type="line"/>
      <point x="460" y="432" type="line"/>
      <point x="460" y="546" type="line"/>
      <point x="333" y="546" type="line"/>
      <point x="333" y="573" type="line" smooth="yes"/>
      <point x="333" y="622"/>
      <point x="346" y="646"/>
      <point x="385" y="646" type="curve" smooth="yes"/>
      <point x="403" y="646"/>
      <point x="426" y="641"/>
      <point x="452" y="631" type="curve"/>
      <point x="490" y="742" type="line"/>
      <point x="446" y="757"/>
      <point x="408" y="765"/>
      <point x="360" y="765" type="curve" smooth="yes"/>
      <point x="245" y="765"/>
      <point x="205" y="709"/>
      <point x="205" y="582" type="curve" smooth="yes"/>
      <point x="205" y="546" type="line"/>
      <point x="90" y="509" type="line"/>
      <point x="90" y="432" type="line"/>
      <point x="205" y="432" type="line"/>
      <point x="205" y="144" type="line" smooth="yes"/>
      <point x="205" y="113"/>
      <point x="194" y="95"/>
      <point x="170" y="95" type="curve" smooth="yes"/>
      <point x="152" y="95"/>
      <point x="140" y="108"/>
      <point x="140" y="128" type="curve" smooth="yes"/>
      <point x="140" y="141"/>
      <point x="143" y="150"/>
      <point x="146" y="159" type="curve"/>
      <point x="30" y="187" type="line"/>
      <point x="23" y="171"/>
      <point x="16" y="147"/>
      <point x="16" y="120" type="curve" smooth="yes"/>
      <point x="16" y="38"/>
      <point x="71" y="-15"/>
    </contour>
  </outline>
</glyph>
<glyph name="uni019A" format="2">
  <advance width="500"/>
  <unicode hex="019A"/>
  <anchor x="250" y="0" name="bottom"/>
  <anchor x="250" y="760" name="top"/>
  <anchor x="258" y="370" name="center"/>
  <anchor x="426" y="760" name="topright"/>
  <outline>
    <contour>
      <point x="78" y="328" type="line"/>
      <point x="431" y="328" type="line"/>
      <point x="431" y="422" type="line"/>
      <point x="78" y="422" type="line"/>
    </contour>
    <component base="l"/>
  </outline>
</glyph>
<glyph name="uni019B" format="2">
  <advance width="500"/>
  <unicode hex="019B"/>
  <anchor x="260" y="0" name="bottom"/>
  <anchor x="266" y="766" name="top"/>
  <outline>
    <contour>
      <point x="112" y="505" type="line"/>
      <point x="365" y="602" type="line"/>
      <point x="333" y="682" type="line"/>
      <point x="80" y="586" type="line"/>
    </contour>
    <component base="lambda"/>
  </outline>
</glyph>
<glyph name="uni01B5" format="2">
  <advance width="500"/>
  <unicode hex="01B5"/>
  <anchor x="250" y="0" name="bottom"/>
  <anchor x="250" y="714" name="top"/>
  <anchor x="480" y="714" name="topright"/>
  <outline>
    <contour>
      <point x="80" y="300" type="line"/>
      <point x="437" y="300" type="line"/>
      <point x="437" y="416" type="line"/>
      <point x="80" y="416" type="line"/>
    </contour>
    <component base="Z"/>
  </outline>
</glyph>
<glyph name="uni01B6" format="2">
  <advance width="500"/>
  <unicode hex="01B6"/>
  <anchor x="250" y="0" name="bottom"/>
  <anchor x="250" y="546" name="top"/>
  <anchor x="480" y="546" name="topright"/>
  <outline>
    <contour>
      <point x="73" y="225" type="line"/>
      <point x="432" y="225" type="line"/>
      <point x="432" y="320" type="line"/>
      <point x="73" y="320" type="line"/>
    </contour>
    <component base="z"/>
  </outline>
</glyph>
<glyph name="uni01BB" format="2">
  <advance width="500"/>
  <unicode hex="01BB"/>
  <anchor x="264" y="0" name="bottom"/>
  <anchor x="250" y="714" name="top"/>
  <outline>
    <contour>
      <point x="86" y="322" type="line"/>
      <point x="461" y="322" type="line"/>
      <point x="461" y="416" type="line"/>
      <point x="86" y="416" type="line"/>
    </contour>
    <component base="two"/>
  </outline>
</glyph>
<glyph name="uni01C2" format="2">
  <advance width="500"/>
  <unicode hex="01C2"/>
  <anchor x="250" y="0" name="bottom"/>
  <anchor x="250" y="760" name="top"/>
  <outline>
    <contour>
      <point x="81" y="433" type="line"/>
      <point x="418" y="433" type="line"/>
      <point x="418" y="537" type="line"/>
      <point x="81" y="537" type="line"/>
    </contour>
    <contour>
      <point x="81" y="210" type="line"/>
      <point x="418" y="210" type="line"/>
      <point x="418" y="315" type="line"/>
      <point x="81" y="315" type="line"/>
    </contour>
    <component base="uni01C0"/>
  </outline>
</glyph>
<glyph name="uni023A" format="2">
  <advance width="500"/>
  <unicode hex="023A"/>
  <anchor x="250" y="-75" name="bottom"/>
  <anchor x="250" y="760" name="top"/>
  <anchor x="450" y="10" name="ogonek"/>
  <anchor x="480" y="714" name="topright"/>
  <outline>
    <contour>
      <point x="190" y="-75" type="line"/>
      <point x="243" y="-75" type="line"/>
      <point x="391" y="760" type="line"/>
      <point x="338" y="760" type="line"/>
    </contour>
    <component base="A"/>
  </outline>
</glyph>
<glyph name="uni023C" format="2">
  <advance width="500"/>
  <unicode hex="023C"/>
  <anchor x="250" y="-208" name="bottom"/>
  <anchor x="280" y="760" name="top"/>
  <anchor x="480" y="546" name="topright"/>
  <outline>
    <contour>
      <point x="134" y="-208" type="line"/>
      <point x="194" y="-208" type="line"/>
      <point x="446" y="760" type="line"/>
      <point x="386" y="760" type="line"/>
    </contour>
    <component base="c"/>
  </outline>
</glyph>
<glyph name="uni023E" format="2">
  <advance width="500"/>
  <unicode hex="023E"/>
  <anchor x="250" y="-75" name="bottom"/>
  <anchor x="250" y="760" name="top"/>
  <anchor x="250" y="357" name="center"/>
  <anchor x="480" y="714" name="topright"/>
  <outline>
    <contour>
      <point x="86" y="-75" type="line"/>
      <point x="142" y="-75" type="line"/>
      <point x="404" y="760" type="line"/>
      <point x="348" y="760" type="line"/>
    </contour>
    <component base="T"/>
  </outline>
</glyph>
<glyph name="uni0247" format="2">
  <advance width="500"/>
  <unicode hex="0247"/>
  <anchor x="250" y="-208" name="bottom"/>
  <anchor x="250" y="760" name="top"/>
  <anchor x="258" y="10" name="ogonek"/>
  <anchor x="480" y="546" name="topright"/>
  <outline>
    <contour>
      <point x="110" y="-208" type="line"/>
      <point x="170" y="-208" type="line"/>
      <point x="422" y="760" type="line"/>
      <point x="362" y="760" type="line"/>
    </contour>
    <component base="e"/>
  </outline>
</glyph>
<glyph name="uni0249" format="2">
  <advance width="500"/>
  <unicode hex="0249"/>
  <anchor x="250" y="-245" name="bottom"/>
  <anchor x="287" y="771" name="top"/>
  <anchor x="420" y="771" name="topright"/>
  <outline>
    <contour>
      <point x="92" y="201" type="line"/>
      <point x="478" y="201" type="line"/>
      <point x="478" y="296" type="line"/>
      <point x="92" y="296" type="line"/>
    </contour>
    <component base="j"/>
  </outline>
</glyph>
<glyph name="uni024A" format="2">
  <advance width="500"/>
  <unicode hex="024A"/>
  <anchor x="250" y="-240" name="bottom"/>
  <anchor x="250" y="714" name="top"/>
  <outline>
    <contour>
      <point x="478" y="-240" type="curve" smooth="yes"/>
      <point x="514" y="-240"/>
      <point x="542" y="-232"/>
      <point x="556" y="-225" type="curve"/>
      <point x="556" y="-114" type="line"/>
      <point x="547" y="-118"/>
      <point x="527" y="-124"/>
      <point x="511" y="-124" type="curve" smooth="yes"/>
      <point x="483" y="-124"/>
      <point x="465" y="-105"/>
      <point x="465" y="-62" type="curve" smooth="yes"/>
      <point x="465" y="110" type="line"/>
      <point x="335" y="110" type="line"/>
      <point x="333" y="82"/>
      <point x="331" y="44"/>
      <point x="331" y="3" type="curve" smooth="yes"/>
      <point x="331" y="-65" type="line" smooth="yes"/>
      <point x="331" y="-188"/>
      <point x="385" y="-240"/>
    </contour>
    <component base="uni2C6D"/>
  </outline>
</glyph>
<glyph name="uni024F" format="2">
  <advance width="500"/>
  <unicode hex="024F"/>
  <anchor x="250" y="-245" name="bottom"/>
  <anchor x="250" y="546" name="top"/>
  <anchor x="480" y="546" name="topright"/>
  <outline>
    <contour>
      <point x="15" y="306" type="line"/>
      <point x="496" y="306" type="line"/>
      <point x="496" y="381" type="line"/>
      <point x="15" y="381" type="line"/>
    </contour>
    <component base="y"/>
  </outline>
</glyph>
<glyph name="uni025F" format="2">
  <advance width="500"/>
  <unicode hex="025F"/>
  <anchor x="249" y="-239" name="bottom"/>
  <anchor x="267" y="546" name="top"/>
  <anchor x="420" y="546" name="topright"/>
  <outline>
    <contour>
      <point x="184" y="-240" type="curve" smooth="yes"/>
      <point x="276" y="-239"/>
      <point x="329" y="-183"/>
      <point x="329" y="-59" type="curve" smooth="yes"/>
      <point x="329" y="244" type="line"/>
      <point x="385" y="244" type="line"/>
      <point x="385" y="339" type="line"/>
      <point x="329" y="339" type="line"/>
      <point x="329" y="547" type="line"/>
      <point x="199" y="547" type="line"/>
      <point x="199" y="339" type="line"/>
      <point x="143" y="339" type="line"/>
      <point x="143" y="244" type="line"/>
      <point x="199" y="244" type="line"/>
      <point x="199" y="-52" type="line" smooth="yes"/>
      <point x="199" y="-102"/>
      <point x="185" y="-126"/>
      <point x="155" y="-126" type="curve" smooth="yes"/>
      <point x="142" y="-126"/>
      <point x="128" y="-123"/>
      <point x="114" y="-117" type="curve"/>
      <point x="114" y="-229" type="line"/>
      <point x="136" y="-237"/>
      <point x="160" y="-240"/>
    </contour>
  </outline>
</glyph>
<glyph name="uni026B" format="2">
  <advance width="500"/>
  <unicode hex="026B"/>
  <anchor x="256" y="0" name="bottom"/>
  <anchor x="256" y="760" name="top"/>
  <anchor x="258" y="370" name="center"/>
  <anchor x="426" y="760" name="topright"/>
  <outline>
    <contour>
      <point x="62" y="301" type="curve"/>
      <point x="140" y="301" type="line"/>
      <point x="142" y="338"/>
      <point x="153" y="357"/>
      <point x="174" y="357" type="curve" smooth="yes"/>
      <point x="210" y="357"/>
      <point x="313" y="302"/>
      <point x="362" y="302" type="curve" smooth="yes"/>
      <point x="400" y="302"/>
      <point x="450" y="334"/>
      <point x="450" y="452" type="curve"/>
      <point x="372" y="452" type="line"/>
      <point x="370" y="419"/>
      <point x="363" y="396"/>
      <point x="341" y="396" type="curve" smooth="yes"/>
      <point x="308" y="396"/>
      <point x="199" y="451"/>
      <point x="149" y="451" type="curve" smooth="yes"/>
      <point x="92" y="451"/>
      <point x="63" y="381"/>
    </contour>
    <component base="l"/>
  </outline>
</glyph>
<glyph name="uni026C" format="2">
  <advance width="500"/>
  <unicode hex="026C"/>
  <anchor x="250" y="0" name="bottom"/>
  <anchor x="254" y="760" name="top"/>
  <anchor x="258" y="370" name="center"/>
  <anchor x="426" y="760" name="topright"/>
  <outline>
    <contour>
      <point x="161" y="284" type="curve"/>
      <point x="405" y="284" type="line"/>
      <point x="405" y="368" type="line"/>
      <point x="320" y="368" type="line"/>
      <point x="192" y="492" type="line"/>
      <point x="179" y="504"/>
      <point x="163" y="509"/>
      <point x="145" y="509" type="curve" smooth="yes"/>
      <point x="82" y="509"/>
      <point x="46" y="467"/>
      <point x="46" y="400" type="curve" smooth="yes"/>
      <point x="46" y="337"/>
      <point x="80" y="284"/>
    </contour>
    <contour>
      <point x="166" y="368" type="line" smooth="yes"/>
      <point x="144" y="368"/>
      <point x="127" y="377"/>
      <point x="127" y="402" type="curve" smooth="yes"/>
      <point x="127" y="422"/>
      <point x="138" y="435"/>
      <point x="156" y="435" type="curve" smooth="yes"/>
      <point x="177" y="435"/>
      <point x="192" y="417"/>
      <point x="192" y="382" type="curve" smooth="yes"/>
      <point x="192" y="368" type="line"/>
    </contour>
    <component base="l"/>
  </outline>
</glyph>
<glyph name="uni02A1" format="2">
  <advance width="500"/>
  <unicode hex="02A1"/>
  <anchor x="226" y="0" name="bottom"/>
  <anchor x="250" y="765" name="top"/>
  <anchor x="450" y="760" name="topright"/>
  <outline>
    <contour>
      <point x="43" y="136" type="line"/>
      <point x="417" y="136" type="line"/>
      <point x="417" y="232" type="line"/>
      <point x="43" y="232" type="line"/>
    </contour>
    <component base="uni0294"/>
  </outline>
</glyph>
<glyph name="Epsilontonos" format="2">
  <advance width="500"/>
  <unicode hex="0388"/>
  <anchor x="288" y="0" name="bottom"/>
  <anchor x="282" y="714" name="top"/>
  <anchor x="48" y="714" name="topleft"/>
  <outline>
    <contour>
      <point x="115" y="0" type="line"/>
      <point x="450" y="0" type="line"/>
      <point x="450" y="119" type="line"/>
      <point x="243" y="119" type="line"/>
      <point x="243" y="302" type="line"/>
      <point x="432" y="302" type="line"/>
      <point x="432" y="421" type="line"/>
      <point x="243" y="421" type="line"/>
      <point x="243" y="595" type="line"/>
      <point x="450" y="595" type="line"/>
      <point x="450" y="714" type="line"/>
      <point x="115" y="714" type="line"/>
    </contour>
    <component base="tonos" xOffset="-264"/>
  </outline>
</glyph>
<glyph name="Etatonos" format="2">
  <advance width="500"/>
  <unicode hex="0389"/>
  <anchor x="276" y="0" name="bottom"/>
  <anchor x="276" y="375" name="center"/>
  <anchor x="276" y="714" name="top"/>
  <anchor x="46" y="714" name="topleft"/>
  <outline>
    <contour>
      <point x="85" y="0" type="line"/>
      <point x="213" y="0" type="line"/>
      <point x="213" y="307" type="line"/>
      <point x="337" y="307" type="line"/>
      <point x="337" y="0" type="line"/>
      <point x="465" y="0" type="line"/>
      <point x="465" y="714" type="line"/>
      <point x="337" y="714" type="line"/>
      <point x="337" y="431" type="line"/>
      <point x="213" y="431" type="line"/>
      <point x="213" y="714" type="line"/>
      <point x="85" y="714" type="line"/>
    </contour>
    <component base="tonos" xOffset="-272"/>
  </outline>
</glyph>
<glyph name="eta" format="2">
  <advance width="500"/>
  <unicode hex="03B7"/>
  <anchor x="250" y="-240" name="bottom"/>
  <anchor x="250" y="546" name="top"/>
  <anchor x="480" y="546" name="topright"/>
  <outline>
    <contour>
      <point x="332" y="-240" type="line"/>
      <point x="460" y="-240" type="line"/>
      <point x="460" y="68" type="line"/>
      <point x="332" y="68" type="line"/>
    </contour>
    <component base="n"/>
  </outline>
</glyph>
<glyph name="afii10033" format="2">
  <advance width="500"/>
  <unicode hex="041F"/>
  <anchor x="250" y="0" name="bottom"/>
  <anchor x="480" y="0" name="bottomright"/>
  <anchor x="250" y="714" name="top"/>
  <outline>
    <contour>
      <point x="35" y="0" type="line"/>
      <point x="164" y="0" type="line"/>
      <point x="164" y="602" type="line"/>
      <point x="337" y="602" type="line"/>
      <point x="337" y="0" type="line"/>
      <point x="465" y="0" type="line"/>
      <point x="465" y="714" type="line"/>
      <point x="35" y="714" type="line"/>
    </contour>
  </outline>
</glyph>
<glyph name="afii10043" format="2">
  <advance width="500"/>
  <unicode hex="0429"/>
  <anchor x="250" y="-208" name="bottom"/>
  <anchor x="250" y="714" name="top"/>
  <outline>
    <contour>
      <point x="376" y="-208" type="line"/>
      <point x="500" y="-208" type="line"/>
      <point x="500" y="111" type="line"/>
      <point x="352" y="111" type="line"/>
      <point x="352" y="0" type="line"/>
      <point x="376" y="0" type="line"/>
    </contour>
    <component base="afii10042"/>
  </outline>
</glyph>
<glyph name="afii10081" format="2">
  <advance width="500"/>
  <unicode hex="043F"/>
  <anchor x="253" y="0" name="bottom"/>
  <anchor x="480" y="0" name="bottomright"/>
  <anchor x="253" y="546" name="top"/>
  <outline>
    <contour>
      <point x="45" y="0" type="line"/>
      <point x="167" y="0" type="line"/>
      <point x="167" y="443" type="line"/>
      <point x="333" y="443" type="line"/>
      <point x="333" y="0" type="line"/>
      <point x="455" y="0" type="line"/>
      <point x="455" y="546" type="line"/>
      <point x="45" y="546" type="line"/>
    </contour>
  </outline>
</glyph>
<glyph name="afii10091" format="2">
  <advance width="500"/>
  <unicode hex="0449"/>
  <anchor x="250" y="-156" name="bottom"/>
  <anchor x="250" y="546" name="top"/>
  <outline>
    <contour>
      <point x="381" y="-195" type="line"/>
      <point x="500" y="-195" type="line"/>
      <point x="500" y="104" type="line"/>
      <point x="361" y="104" type="line"/>
      <point x="361" y="0" type="line"/>
      <point x="381" y="0" type="line"/>
    </contour>
    <component base="afii10090"/>
  </outline>
</glyph>
<glyph name="afii10099" format="2">
  <advance width="500"/>
  <unicode hex="0452"/>
  <anchor x="250" y="-240" name="bottom"/>
  <anchor x="250" y="760" name="top"/>
  <anchor x="250" y="273" name="center"/>
  <outline>
    <contour>
      <point x="315" y="-240" type="curve" smooth="yes"/>
      <point x="405" y="-240"/>
      <point x="460" y="-176"/>
      <point x="460" y="-63" type="curve" smooth="yes"/>
      <point x="460" y="152" type="line"/>
      <point x="332" y="152" type="line" smooth="yes"/>
      <point x="332" y="-57" type="line" smooth="yes"/>
      <point x="332" y="-108"/>
      <point x="318" y="-133"/>
      <point x="289" y="-133" type="curve" smooth="yes"/>
      <point x="276" y="-133"/>
      <point x="262" y="-130"/>
      <point x="249" y="-124" type="curve"/>
      <point x="249" y="-229" type="line"/>
      <point x="263" y="-235"/>
      <point x="296" y="-240"/>
    </contour>
    <component base="afii10108"/>
  </outline>
</glyph>
<glyph name="uni0473" format="2">
  <advance width="500"/>
  <unicode hex="0473"/>
  <anchor x="250" y="0" name="bottom"/>
  <anchor x="250" y="546" name="top"/>
  <anchor x="250" y="273" name="center"/>
  <anchor x="245" y="10" name="ogonek"/>
  <anchor x="480" y="546" name="topright"/>
  <outline>
    <contour>
      <point x="84" y="216" type="line"/>
      <point x="412" y="216" type="line"/>
      <point x="412" y="326" type="line"/>
      <point x="84" y="326" type="line"/>
    </contour>
    <component base="o"/>
  </outline>
</glyph>
<glyph name="uni0488" format="2">
  <unicode hex="0488"/>
  <outline>
    <contour>
      <point x="-82" y="579" type="curve"/>
      <point x="-53" y="579" type="line"/>
      <point x="-51" y="614"/>
      <point x="-35" y="618"/>
      <point x="-3" y="618" type="curve" smooth="yes"/>
      <point x="22" y="618"/>
      <point x="43" y="612"/>
      <point x="46" y="579" type="curve"/>
      <point x="76" y="579" type="line"/>
      <point x="73" y="630"/>
      <point x="45" y="665"/>
      <point x="-3" y="665" type="curve" smooth="yes"/>
      <point x="-55" y="665"/>
      <point x="-79" y="632"/>
    </contour>
    <contour>
      <point x="51" y="422" type="curve"/>
      <point x="80" y="422" type="line"/>
      <point x="83" y="458"/>
      <point x="99" y="462"/>
      <point x="130" y="462" type="curve" smooth="yes"/>
      <point x="155" y="462"/>
      <point x="177" y="456"/>
      <point x="179" y="422" type="curve"/>
      <point x="210" y="422" type="line"/>
      <point x="206" y="473"/>
      <point x="179" y="509"/>
      <point x="130" y="509" type="curve" smooth="yes"/>
      <point x="78" y="509"/>
      <point x="54" y="475"/>
    </contour>
    <contour>
      <point x="93" y="236" type="curve"/>
      <point x="122" y="236" type="line"/>
      <point x="125" y="272"/>
      <point x="141" y="275"/>
      <point x="172" y="275" type="curve" smooth="yes"/>
      <point x="197" y="275"/>
      <point x="218" y="270"/>
      <point x="222" y="236" type="curve"/>
      <point x="251" y="236" type="line"/>
      <point x="248" y="287"/>
      <point x="221" y="322"/>
      <point x="172" y="322" type="curve" smooth="yes"/>
      <point x="120" y="322"/>
      <point x="96" y="289"/>
    </contour>
    <contour>
      <point x="51" y="44" type="curve"/>
      <point x="80" y="44" type="line"/>
      <point x="83" y="80"/>
      <point x="99" y="83"/>
      <point x="130" y="83" type="curve" smooth="yes"/>
      <point x="155" y="83"/>
      <point x="177" y="78"/>
      <point x="179" y="44" type="curve"/>
      <point x="210" y="44" type="line"/>
      <point x="206" y="95"/>
      <point x="179" y="131"/>
      <point x="130" y="131" type="curve" smooth="yes"/>
      <point x="78" y="131"/>
      <point x="54" y="97"/>
    </contour>
    <contour>
      <point x="-82" y="-109" type="curve"/>
      <point x="-53" y="-109" type="line"/>
      <point x="-51" y="-74"/>
      <point x="-35" y="-70"/>
      <point x="-3" y="-70" type="curve" smooth="yes"/>
      <point x="22" y="-70"/>
      <point x="43" y="-76"/>
      <point x="46" y="-109" type="curve"/>
      <point x="76" y="-109" type="line"/>
      <point x="73" y="-58"/>
      <point x="45" y="-23"/>
      <point x="-3" y="-23" type="curve" smooth="yes"/>
      <point x="-55" y="-23"/>
      <point x="-79" y="-57"/>
    </contour>
    <contour>
      <point x="-213" y="44" type="curve"/>
      <point x="-185" y="44" type="line"/>
      <point x="-182" y="80"/>
      <point x="-166" y="83"/>
      <point x="-136" y="83" type="curve" smooth="yes"/>
      <point x="-110" y="83"/>
      <point x="-88" y="78"/>
      <point x="-86" y="44" type="curve"/>
      <point x="-56" y="44" type="line"/>
      <point x="-59" y="95"/>
      <point x="-87" y="131"/>
      <point x="-136" y="131" type="curve" smooth="yes"/>
      <point x="-187" y="131"/>
      <point x="-211" y="97"/>
    </contour>
    <contour>
      <point x="-251" y="236" type="curve"/>
      <point x="-222" y="236" type="line"/>
      <point x="-219" y="272"/>
      <point x="-203" y="275"/>
      <point x="-173" y="275" type="curve" smooth="yes"/>
      <point x="-147" y="275"/>
      <point x="-125" y="270"/>
      <point x="-123" y="236" type="curve"/>
      <point x="-93" y="236" type="line"/>
      <point x="-96" y="287"/>
      <point x="-124" y="322"/>
      <point x="-173" y="322" type="curve" smooth="yes"/>
      <point x="-224" y="322"/>
      <point x="-248" y="289"/>
    </contour>
    <contour>
      <point x="-213" y="422" type="curve"/>
      <point x="-185" y="422" type="line"/>
      <point x="-182" y="458"/>
      <point x="-166" y="462"/>
      <point x="-136" y="462" type="curve" smooth="yes"/>
      <point x="-110" y="462"/>
      <point x="-88" y="456"/>
      <point x="-86" y="422" type="curve"/>
      <point x="-56" y="422" type="line"/>
      <point x="-59" y="473"/>
      <point x="-87" y="509"/>
      <point x="-136" y="509" type="curve" smooth="yes"/>
      <point x="-187" y="509"/>
      <point x="-211" y="475"/>
    </contour>
  </outline>
</glyph>
<glyph name="uni0489" format="2">
  <unicode hex="0489"/>
  <outline>
    <contour>
      <point x="206" y="450" type="line"/>
      <point x="240" y="476"/>
      <point x="289" y="508"/>
      <point x="351" y="547" type="curve"/>
      <point x="302" y="594" type="line"/>
      <point x="256" y="578"/>
      <point x="184" y="544"/>
      <point x="144" y="521" type="curve"/>
      <point x="143" y="512" type="line"/>
    </contour>
    <contour>
      <point x="-301" y="-61" type="line"/>
      <point x="-248" y="-41"/>
      <point x="-188" y="-13"/>
      <point x="-143" y="13" type="curve"/>
      <point x="-141" y="22" type="line"/>
      <point x="-205" y="83" type="line"/>
      <point x="-237" y="58"/>
      <point x="-286" y="26"/>
      <point x="-350" y="-13" type="curve"/>
    </contour>
    <contour>
      <point x="-269" y="205" type="curve"/>
      <point x="-262" y="209" type="line"/>
      <point x="-262" y="297" type="line"/>
      <point x="-303" y="303"/>
      <point x="-361" y="314"/>
      <point x="-433" y="332" type="curve"/>
      <point x="-433" y="264" type="line"/>
      <point x="-378" y="238"/>
      <point x="-323" y="218"/>
    </contour>
    <contour>
      <point x="-62" y="-188" type="curve"/>
      <point x="6" y="-188" type="line"/>
      <point x="33" y="-130"/>
      <point x="53" y="-76"/>
      <point x="66" y="-24" type="curve"/>
      <point x="61" y="-17" type="line"/>
      <point x="-28" y="-17" type="line"/>
      <point x="-33" y="-58"/>
      <point x="-45" y="-115"/>
    </contour>
    <contour>
      <point x="262" y="-100" type="curve"/>
      <point x="310" y="-53" type="line"/>
      <point x="293" y="-6"/>
      <point x="259" y="66"/>
      <point x="237" y="105" type="curve"/>
      <point x="228" y="107" type="line"/>
      <point x="166" y="44" type="line"/>
      <point x="193" y="9"/>
      <point x="225" y="-39"/>
    </contour>
    <contour>
      <point x="-228" y="427" type="line"/>
      <point x="-165" y="490" type="line"/>
      <point x="-190" y="521"/>
      <point x="-222" y="570"/>
      <point x="-261" y="635" type="curve"/>
      <point x="-310" y="587" type="line"/>
      <point x="-287" y="527"/>
      <point x="-263" y="475"/>
      <point x="-236" y="429" type="curve"/>
    </contour>
    <contour>
      <point x="433" y="208" type="curve"/>
      <point x="433" y="275" type="line"/>
      <point x="396" y="293"/>
      <point x="312" y="324"/>
      <point x="269" y="335" type="curve"/>
      <point x="262" y="330" type="line"/>
      <point x="262" y="242" type="line"/>
      <point x="306" y="236"/>
      <point x="362" y="225"/>
    </contour>
    <contour>
      <point x="-60" y="557" type="line"/>
      <point x="28" y="557" type="line"/>
      <point x="35" y="601"/>
      <point x="46" y="657"/>
      <point x="63" y="728" type="curve"/>
      <point x="-5" y="728" type="line"/>
      <point x="-26" y="684"/>
      <point x="-53" y="609"/>
      <point x="-65" y="564" type="curve"/>
    </contour>
  </outline>
</glyph>
<glyph name="uni048B" format="2">
  <advance width="500"/>
  <unicode hex="048B"/>
  <anchor x="250" y="-197" name="bottom"/>
  <anchor x="250" y="764" name="top"/>
  <anchor x="480" y="0" name="bottomright"/>
  <outline>
    <contour>
      <point x="341" y="-197" type="line"/>
      <point x="457" y="-197" type="line"/>
      <point x="515" y="102" type="line"/>
      <point x="390" y="102" type="line"/>
      <point x="383" y="0" type="line"/>
      <point x="396" y="0" type="line"/>
    </contour>
    <component base="afii10074"/>
    <component base="breve"/>
  </outline>
</glyph>
<glyph name="uni048F" format="2">
  <advance width="500"/>
  <unicode hex="048F"/>
  <anchor x="250" y="-240" name="bottom"/>
  <anchor x="250" y="546" name="top"/>
  <anchor x="480" y="546" name="topright"/>
  <outline>
    <contour>
      <point x="325" y="-102" type="line"/>
      <point x="396" y="-76" type="line"/>
      <point x="281" y="242" type="line"/>
      <point x="210" y="217" type="line"/>
    </contour>
    <component base="p"/>
  </outline>
</glyph>
<glyph name="afii10050" format="2">
  <advance width="500"/>
  <unicode hex="0490"/>
  <anchor x="250" y="0" name="bottom"/>
  <anchor x="250" y="865" name="top"/>
  <outline>
    <contour>
      <point x="326" y="602" type="line"/>
      <point x="450" y="602" type="line"/>
      <point x="450" y="865" type="line"/>
      <point x="326" y="865" type="line"/>
    </contour>
    <component base="Gamma"/>
  </outline>
</glyph>
<glyph name="uni0493" format="2">
  <advance width="500"/>
  <unicode hex="0493"/>
  <anchor x="250" y="0" name="bottom"/>
  <anchor x="250" y="546" name="top"/>
  <anchor x="480" y="0" name="bottomright"/>
  <outline>
    <contour>
      <point x="60" y="204" type="line"/>
      <point x="339" y="204" type="line"/>
      <point x="339" y="312" type="line"/>
      <point x="60" y="312" type="line"/>
    </contour>
    <component base="afii10068"/>
  </outline>
</glyph>
<glyph name="uni0496" format="2">
  <advance width="500"/>
  <unicode hex="0496"/>
  <anchor x="250" y="-211" name="bottom"/>
  <anchor x="250" y="714" name="top"/>
  <anchor x="480" y="0" name="bottomright"/>
  <outline>
    <contour>
      <point x="393" y="-211" type="line"/>
      <point x="505" y="-211" type="line"/>
      <point x="505" y="119" type="line"/>
      <point x="424" y="119" type="line"/>
      <point x="393" y="0" type="line"/>
    </contour>
    <component base="afii10024"/>
  </outline>
</glyph>
<glyph name="uni049A" format="2">
  <advance width="500"/>
  <unicode hex="049A"/>
  <anchor x="250" y="-211" name="bottom"/>
  <anchor x="250" y="714" name="top"/>
  <anchor x="480" y="0" name="bottomright"/>
  <outline>
    <contour>
      <point x="379" y="-211" type="line"/>
      <point x="503" y="-211" type="line"/>
      <point x="503" y="119" type="line"/>
      <point x="390" y="119" type="line"/>
      <point x="379" y="0" type="line"/>
    </contour>
    <component base="afii10028"/>
  </outline>
</glyph>
<glyph name="uni049B" format="2">
  <advance width="500"/>
  <unicode hex="049B"/>
  <anchor x="250" y="-196" name="bottom"/>
  <anchor x="250" y="546" name="top"/>
  <anchor x="480" y="0" name="bottomright"/>
  <outline>
    <contour>
      <point x="378" y="-197" type="line"/>
      <point x="492" y="-197" type="line"/>
      <point x="492" y="110" type="line"/>
      <point x="415" y="110" type="line"/>
      <point x="378" y="0" type="line"/>
    </contour>
    <component base="afii10076"/>
  </outline>
</glyph>
<glyph name="uni049D" format="2">
  <advance width="500"/>
  <unicode hex="049D"/>
  <anchor x="250" y="0" name="bottom"/>
  <anchor x="250" y="546" name="top"/>
  <anchor x="480" y="0" name="bottomright"/>
  <outline>
    <contour>
      <point x="219" y="24" type="line"/>
      <point x="267" y="24" type="line"/>
      <point x="267" y="518" type="line"/>
      <point x="219" y="518" type="line"/>
    </contour>
    <component base="afii10076"/>
  </outline>
</glyph>
<glyph name="uni04AC" format="2">
  <advance width="500"/>
  <unicode hex="04AC"/>
  <anchor x="250" y="-211" name="bottom"/>
  <anchor x="250" y="714" name="top"/>
  <anchor x="250" y="357" name="center"/>
  <anchor x="480" y="714" name="topright"/>
  <outline>
    <contour>
      <point x="262" y="-211" type="line"/>
      <point x="395" y="-211" type="line"/>
      <point x="395" y="119" type="line"/>
      <point x="282" y="119" type="line"/>
      <point x="207" y="0" type="line"/>
      <point x="262" y="0" type="line"/>
    </contour>
    <component base="T"/>
  </outline>
</glyph>
<glyph name="uni04B2" format="2">
  <advance width="500"/>
  <unicode hex="04B2"/>
  <anchor x="250" y="-209" name="bottom"/>
  <anchor x="250" y="714" name="top"/>
  <anchor x="480" y="714" name="topright"/>
  <outline>
    <contour>
      <point x="376" y="-211" type="line"/>
      <point x="497" y="-211" type="line"/>
      <point x="497" y="119" type="line"/>
      <point x="364" y="119" type="line"/>
      <point x="364" y="0" type="line"/>
      <point x="376" y="0" type="line"/>
    </contour>
    <component base="X"/>
  </outline>
</glyph>
<glyph name="uni04B6" format="2">
  <advance width="500"/>
  <unicode hex="04B6"/>
  <anchor x="250" y="-208" name="bottom"/>
  <anchor x="250" y="714" name="top"/>
  <anchor x="480" y="0" name="bottomright"/>
  <outline>
    <contour>
      <point x="377" y="-211" type="line"/>
      <point x="500" y="-211" type="line"/>
      <point x="500" y="119" type="line"/>
      <point x="417" y="119" type="line"/>
      <point x="365" y="0" type="line"/>
      <point x="377" y="0" type="line"/>
    </contour>
    <component base="afii10041"/>
  </outline>
</glyph>
<glyph name="uni04B8" format="2">
  <advance width="500"/>
  <unicode hex="04B8"/>
  <anchor x="250" y="0" name="bottom"/>
  <anchor x="250" y="714" name="top"/>
  <anchor x="480" y="0" name="bottomright"/>
  <outline>
    <contour>
      <point x="218" y="93" type="line"/>
      <point x="282" y="93" type="line"/>
      <point x="282" y="525" type="line"/>
      <point x="218" y="525" type="line"/>
    </contour>
    <component base="afii10041"/>
  </outline>
</glyph>
<glyph name="uni04BF" format="2">
  <advance width="500"/>
  <unicode hex="04BF"/>
  <anchor x="322" y="-240" name="bottom"/>
  <anchor x="308" y="546" name="top"/>
  <outline>
    <contour>
      <point x="261" y="-195" type="line"/>
      <point x="380" y="-195" type="line"/>
      <point x="380" y="40" type="line"/>
      <point x="261" y="40" type="line"/>
    </contour>
    <component base="uni04BD"/>
  </outline>
</glyph>
<glyph name="uni04C5" format="2">
  <advance width="500"/>
  <unicode hex="04C5"/>
  <anchor x="280" y="-240" name="bottom"/>
  <anchor x="250" y="714" name="top"/>
  <outline>
    <contour>
      <point x="326" y="-211" type="line"/>
      <point x="449" y="-211" type="line"/>
      <point x="506" y="109" type="line"/>
      <point x="360" y="109" type="line"/>
      <point x="360" y="0" type="line"/>
      <point x="382" y="0" type="line"/>
    </contour>
    <component base="afii10029"/>
  </outline>
</glyph>
<glyph name="uni04C6" format="2">
  <advance width="500"/>
  <unicode hex="04C6"/>
  <anchor x="250" y="-197" name="bottom"/>
  <anchor x="250" y="546" name="top"/>
  <outline>
    <contour>
      <point x="332" y="-197" type="line"/>
      <point x="448" y="-197" type="line"/>
      <point x="506" y="102" type="line"/>
      <point x="371" y="102" type="line"/>
      <point x="364" y="0" type="line"/>
      <point x="387" y="0" type="line"/>
    </contour>
    <component base="afii10077"/>
  </outline>
</glyph>
<glyph name="uni04CA" format="2">
  <advance width="500"/>
  <unicode hex="04CA"/>
  <anchor x="250" y="-193" name="bottom"/>
  <anchor x="250" y="546" name="top"/>
  <anchor x="480" y="0" name="bottomright"/>
  <outline>
    <contour>
      <point x="332" y="-197" type="line"/>
      <point x="448" y="-197" type="line"/>
      <point x="506" y="102" type="line"/>
      <point x="371" y="102" type="line"/>
      <point x="364" y="0" type="line"/>
      <point x="387" y="0" type="line"/>
    </contour>
    <component base="afii10079"/>
  </outline>
</glyph>
<glyph name="uni04CD" format="2">
  <advance width="500"/>
  <unicode hex="04CD"/>
  <anchor x="250" y="-207" name="bottom"/>
  <anchor x="250" y="714" name="top"/>
  <anchor x="500" y="714" name="topright"/>
  <outline>
    <contour>
      <point x="320" y="-211" type="line"/>
      <point x="443" y="-211" type="line"/>
      <point x="500" y="109" type="line"/>
      <point x="369" y="109" type="line"/>
      <point x="369" y="0" type="line"/>
      <point x="376" y="0" type="line"/>
    </contour>
    <component base="M"/>
  </outline>
</glyph>
<glyph name="uni04CE" format="2">
  <advance width="500"/>
  <unicode hex="04CE"/>
  <anchor x="250" y="-240" name="bottom"/>
  <anchor x="250" y="546" name="top"/>
  <outline>
    <contour>
      <point x="341" y="-197" type="line"/>
      <point x="457" y="-197" type="line"/>
      <point x="515" y="102" type="line"/>
      <point x="390" y="102" type="line"/>
      <point x="383" y="0" type="line"/>
      <point x="396" y="0" type="line"/>
    </contour>
    <component base="afii10078"/>
  </outline>
</glyph>
<glyph name="uni04F7" format="2">
  <advance width="500"/>
  <unicode hex="04F7"/>
  <anchor x="251" y="-240" name="bottom"/>
  <anchor x="283" y="546" name="top"/>
  <anchor x="480" y="0" name="bottomright"/>
  <outline>
    <contour>
      <point x="179" y="-197" type="line"/>
      <point x="305" y="-197" type="line"/>
      <point x="305" y="110" type="line"/>
      <point x="191" y="110" type="line"/>
      <point x="151" y="0" type="line"/>
      <point x="179" y="0" type="line"/>
    </contour>
    <component base="afii10068"/>
  </outline>
</glyph>
<glyph name="uni04FE" format="2">
  <advance width="500"/>
  <unicode hex="04FE"/>
  <anchor x="250" y="0" name="bottom"/>
  <anchor x="250" y="714" name="top"/>
  <anchor x="480" y="714" name="topright"/>
  <outline>
    <contour>
      <point x="57" y="307" type="line"/>
      <point x="442" y="307" type="line"/>
      <point x="442" y="420" type="line"/>
      <point x="57" y="420" type="line"/>
    </contour>
    <component base="X"/>
  </outline>
</glyph>
<glyph name="uni04FF" format="2">
  <advance width="500"/>
  <unicode hex="04FF"/>
  <anchor x="250" y="0" name="bottom"/>
  <anchor x="250" y="546" name="top"/>
  <anchor x="480" y="546" name="topright"/>
  <outline>
    <contour>
      <point x="54" y="225" type="line"/>
      <point x="441" y="225" type="line"/>
      <point x="441" y="330" type="line"/>
      <point x="54" y="330" type="line"/>
    </contour>
    <component base="x"/>
  </outline>
</glyph>
<glyph name="uni0513" format="2">
  <advance width="500"/>
  <unicode hex="0513"/>
  <anchor x="267" y="-240" name="bottom"/>
  <anchor x="279" y="546" name="top"/>
  <outline>
    <contour>
      <point x="368" y="-221" type="curve" smooth="yes"/>
      <point x="457" y="-221"/>
      <point x="502" y="-162"/>
      <point x="502" y="-44" type="curve" smooth="yes"/>
      <point x="502" y="110" type="line"/>
      <point x="432" y="110" type="line"/>
      <point x="364" y="0" type="line"/>
      <point x="389" y="0" type="line"/>
      <point x="389" y="-54" type="line" smooth="yes"/>
      <point x="389" y="-102"/>
      <point x="368" y="-122"/>
      <point x="339" y="-122" type="curve" smooth="yes"/>
      <point x="324" y="-122"/>
      <point x="315" y="-119"/>
      <point x="301" y="-113" type="curve"/>
      <point x="301" y="-211" type="line"/>
      <point x="317" y="-216"/>
      <point x="341" y="-221"/>
    </contour>
    <component base="afii10077"/>
  </outline>
</glyph>
<glyph name="uni051F" format="2">
  <advance width="500"/>
  <unicode hex="051F"/>
  <anchor x="250" y="0" name="bottom"/>
  <anchor x="250" y="546" name="top"/>
  <anchor x="480" y="0" name="bottomright"/>
  <outline>
    <contour>
      <point x="400" y="282" type="line"/>
      <point x="463" y="356" type="line"/>
      <point x="247" y="546" type="line"/>
      <point x="185" y="473" type="line"/>
    </contour>
    <component base="afii10076"/>
  </outline>
</glyph>
<glyph name="uni0525" format="2">
  <advance width="500"/>
  <unicode hex="0525"/>
  <anchor x="250" y="-195" name="bottom"/>
  <anchor x="250" y="546" name="top"/>
  <anchor x="480" y="0" name="bottomright"/>
  <outline>
    <contour>
      <point x="380" y="-195" type="line"/>
      <point x="500" y="-195" type="line"/>
      <point x="500" y="102" type="line"/>
      <point x="341" y="102" type="line"/>
      <point x="341" y="0" type="line"/>
      <point x="380" y="0" type="line"/>
    </contour>
    <component base="afii10081"/>
  </outline>
</glyph>
<glyph name="uni0526" format="2">
  <advance width="500"/>
  <unicode hex="0526"/>
  <anchor x="268" y="-208" name="bottom"/>
  <anchor x="250" y="714" name="top"/>
  <anchor x="20" y="714" name="bottomright"/>
  <outline>
    <contour>
      <point x="388" y="-208" type="line"/>
      <point x="512" y="-208" type="line"/>
      <point x="512" y="111" type="line"/>
      <point x="364" y="111" type="line"/>
      <point x="364" y="0" type="line"/>
      <point x="388" y="0" type="line"/>
    </contour>
    <component base="afii10041" xScale="-1" yScale="-1" xOffset="500" yOffset="714"/>
  </outline>
</glyph>
<glyph name="uni0529" format="2">
  <advance width="500"/>
  <unicode hex="0529"/>
  <anchor x="259" y="-240" name="bottom"/>
  <anchor x="250" y="546" name="top"/>
  <anchor x="480" y="0" name="bottomright"/>
  <outline>
    <contour>
      <point x="28" y="-240" type="curve" smooth="yes"/>
      <point x="114" y="-240"/>
      <point x="167" y="-176"/>
      <point x="167" y="-63" type="curve" smooth="yes"/>
      <point x="167" y="152" type="line"/>
      <point x="45" y="152" type="line" smooth="yes"/>
      <point x="45" y="-57" type="line" smooth="yes"/>
      <point x="45" y="-108"/>
      <point x="31" y="-133"/>
      <point x="2" y="-133" type="curve" smooth="yes"/>
      <point x="-11" y="-133"/>
      <point x="-25" y="-130"/>
      <point x="-38" y="-124" type="curve"/>
      <point x="-38" y="-229" type="line"/>
      <point x="-24" y="-235"/>
      <point x="9" y="-240"/>
    </contour>
    <component base="afii10079"/>
  </outline>
</glyph>
<glyph name="uni052A" format="2">
  <advance width="1000"/>
  <unicode hex="052A"/>
  <anchor x="500" y="-206" name="bottom"/>
  <anchor x="500" y="714" name="top"/>
  <anchor x="991" y="0" name="bottomright"/>
  <outline>
    <contour>
      <point x="376" y="315" type="line"/>
      <point x="640" y="315" type="line"/>
      <point x="640" y="422" type="line"/>
      <point x="376" y="422" type="line"/>
    </contour>
    <component base="afii10021"/>
    <component base="afii10028" xOffset="511"/>
  </outline>
</glyph>
<glyph name="uni052B" format="2">
  <advance width="1000"/>
  <unicode hex="052B"/>
  <anchor x="500" y="-195" name="bottom"/>
  <anchor x="500" y="546" name="top"/>
  <anchor x="980" y="0" name="bottomright"/>
  <outline>
    <contour>
      <point x="374" y="234" type="line"/>
      <point x="592" y="234" type="line"/>
      <point x="592" y="330" type="line"/>
      <point x="374" y="330" type="line"/>
    </contour>
    <component base="afii10069"/>
    <component base="afii10076" xOffset="500"/>
  </outline>
</glyph>
<glyph name="uni052E" format="2">
  <advance width="500"/>
  <unicode hex="052E"/>
  <anchor x="258" y="-206" name="bottom"/>
  <anchor x="302" y="714" name="top"/>
  <outline>
    <contour>
      <point x="402" y="-206" type="line"/>
      <point x="525" y="-206" type="line"/>
      <point x="525" y="116" type="line"/>
      <point x="393" y="116" type="line"/>
      <point x="365" y="0" type="line"/>
      <point x="402" y="0" type="line"/>
    </contour>
    <component base="afii10029"/>
  </outline>
</glyph>
<glyph name="uni052F" format="2">
  <advance width="500"/>
  <unicode hex="052F"/>
  <anchor x="268" y="-195" name="bottom"/>
  <anchor x="278" y="546" name="top"/>
  <outline>
    <contour>
      <point x="380" y="-195" type="line"/>
      <point x="500" y="-195" type="line"/>
      <point x="500" y="102" type="line"/>
      <point x="341" y="102" type="line"/>
      <point x="341" y="0" type="line"/>
      <point x="380" y="0" type="line"/>
    </contour>
    <component base="afii10077"/>
  </outline>
</glyph>
<glyph name="uni1ABA" format="2">
  <unicode hex="1ABA"/>
  <anchor x="0" y="0" name="_bottom"/>
  <anchor x="0" y="-237" name="bottom"/>
  <outline>
    <contour>
      <point x="10" y="-178" type="line"/>
      <point x="97" y="40" type="line"/>
      <point x="8" y="40" type="line"/>
      <point x="-80" y="-178" type="line"/>
    </contour>
    <contour>
      <point x="-32" y="-237" type="curve" smooth="yes"/>
      <point x="11" y="-237"/>
      <point x="33" y="-215"/>
      <point x="33" y="-172" type="curve" smooth="yes"/>
      <point x="33" y="-128"/>
      <point x="13" y="-105"/>
      <point x="-32" y="-105" type="curve" smooth="yes"/>
      <point x="-77" y="-105"/>
      <point x="-97" y="-127"/>
      <point x="-97" y="-172" type="curve" smooth="yes"/>
      <point x="-97" y="-215"/>
      <point x="-75" y="-237"/>
    </contour>
  </outline>
</glyph>
<glyph name="uni1D0C" format="2">
  <advance width="500"/>
  <unicode hex="1D0C"/>
  <anchor x="299" y="0" name="bottom"/>
  <anchor x="195" y="546" name="top"/>
  <outline>
    <contour>
      <point x="78" y="158" type="line"/>
      <point x="358" y="363" type="line"/>
      <point x="300" y="437" type="line"/>
      <point x="20" y="231" type="line"/>
    </contour>
    <component base="uni029F" xOffset="20"/>
  </outline>
</glyph>
<glyph name="uni1D1B" format="2">
  <advance width="500"/>
  <unicode hex="1D1B"/>
  <anchor x="250" y="0" name="bottom"/>
  <anchor x="250" y="546" name="top"/>
  <outline>
    <contour>
      <point x="185" y="0" type="line"/>
      <point x="315" y="0" type="line"/>
      <point x="315" y="437" type="line"/>
      <point x="445" y="437" type="line"/>
      <point x="445" y="547" type="line"/>
      <point x="54" y="547" type="line"/>
      <point x="54" y="437" type="line"/>
      <point x="185" y="437" type="line"/>
    </contour>
  </outline>
</glyph>
<glyph name="uni1D24" format="2">
  <advance width="530"/>
  <unicode hex="1D24"/>
  <anchor x="281" y="0" name="bottom"/>
  <anchor x="263" y="760" name="top"/>
  <outline>
    <contour>
      <point x="280" y="-9" type="curve" smooth="yes"/>
      <point x="350" y="-9"/>
      <point x="404" y="10"/>
      <point x="457" y="49" type="curve"/>
      <point x="412" y="151" type="line"/>
      <point x="378" y="124"/>
      <point x="335" y="106"/>
      <point x="294" y="106" type="curve" smooth="yes"/>
      <point x="236" y="106"/>
      <point x="198" y="137"/>
      <point x="198" y="187" type="curve" smooth="yes"/>
      <point x="198" y="258"/>
      <point x="244" y="295"/>
      <point x="337" y="322" type="curve"/>
      <point x="337" y="383" type="line"/>
      <point x="421" y="409"/>
      <point x="478" y="480"/>
      <point x="478" y="585" type="curve" smooth="yes"/>
      <point x="478" y="695"/>
      <point x="394" y="765"/>
      <point x="264" y="765" type="curve" smooth="yes"/>
      <point x="195" y="765"/>
      <point x="141" y="746"/>
      <point x="87" y="707" type="curve"/>
      <point x="133" y="604" type="line"/>
      <point x="167" y="632"/>
      <point x="209" y="649"/>
      <point x="251" y="649" type="curve" smooth="yes"/>
      <point x="309" y="649"/>
      <point x="347" y="619"/>
      <point x="347" y="569" type="curve" smooth="yes"/>
      <point x="347" y="498"/>
      <point x="300" y="461"/>
      <point x="208" y="433" type="curve"/>
      <point x="208" y="373" type="line"/>
      <point x="123" y="346"/>
      <point x="67" y="276"/>
      <point x="67" y="170" type="curve" smooth="yes"/>
      <point x="67" y="60"/>
      <point x="150" y="-9"/>
    </contour>
  </outline>
</glyph>
<glyph name="uni1D2F" format="2">
  <advance width="500"/>
  <unicode hex="1D2F"/>
  <anchor x="255.5" y="287.0" name="bottom"/>
  <anchor x="255.5" y="715.4" name="top"/>
  <anchor x="405.0" y="715.4" name="topright"/>
  <outline>
    <contour>
      <point x="83" y="472" type="line"/>
      <point x="417" y="472" type="line"/>
      <point x="417" y="544" type="line"/>
      <point x="83" y="544" type="line"/>
    </contour>
    <component base="B" xScale="0.65" yScale="0.6" xOffset="93" yOffset="287"/>
  </outline>
</glyph>
<glyph name="uni1D6E" format="2">
  <advance width="500"/>
  <unicode hex="1D6E"/>
  <anchor x="262" y="0" name="bottom"/>
  <anchor x="323" y="765" name="top"/>
  <anchor x="492" y="765" name="topright"/>
  <outline>
    <contour>
      <point x="72" y="191" type="curve"/>
      <point x="140" y="191" type="line"/>
      <point x="144" y="228"/>
      <point x="154" y="244"/>
      <point x="172" y="244" type="curve" smooth="yes"/>
      <point x="215" y="244"/>
      <point x="268" y="192"/>
      <point x="327" y="192" type="curve" smooth="yes"/>
      <point x="378" y="192"/>
      <point x="412" y="247"/>
      <point x="414" y="337" type="curve"/>
      <point x="346" y="337" type="line"/>
      <point x="341" y="302"/>
      <point x="337" y="284"/>
      <point x="314" y="284" type="curve" smooth="yes"/>
      <point x="264" y="284"/>
      <point x="221" y="336"/>
      <point x="158" y="336" type="curve" smooth="yes"/>
      <point x="91" y="336"/>
      <point x="75" y="254"/>
    </contour>
    <component base="f" xOffset="12"/>
  </outline>
</glyph>
<glyph name="uni1D70" format="2">
  <advance width="500"/>
  <unicode hex="1D70"/>
  <anchor x="255" y="0" name="bottom"/>
  <anchor x="260" y="546" name="top"/>
  <anchor x="480" y="546" name="topright"/>
  <outline>
    <contour>
      <point x="-24" y="179" type="curve"/>
      <point x="32" y="179" type="line"/>
      <point x="32" y="225"/>
      <point x="51" y="244"/>
      <point x="97" y="244" type="curve" smooth="yes"/>
      <point x="198" y="244"/>
      <point x="287" y="180"/>
      <point x="389" y="180" type="curve" smooth="yes"/>
      <point x="482" y="180"/>
      <point x="529" y="227"/>
      <point x="529" y="328" type="curve"/>
      <point x="474" y="328" type="line"/>
      <point x="474" y="285"/>
      <point x="456" y="264"/>
      <point x="413" y="264" type="curve" smooth="yes"/>
      <point x="306" y="264"/>
      <point x="224" y="328"/>
      <point x="111" y="328" type="curve" smooth="yes"/>
      <point x="29" y="328"/>
      <point x="-24" y="280"/>
    </contour>
    <component base="n"/>
  </outline>
</glyph>
<glyph name="uni1D73" format="2">
  <advance width="500"/>
  <unicode hex="1D73"/>
  <anchor x="250" y="0" name="bottom"/>
  <anchor x="313" y="546" name="top"/>
  <outline>
    <contour>
      <point x="48" y="165" type="curve"/>
      <point x="116" y="165" type="line"/>
      <point x="120" y="202"/>
      <point x="130" y="218"/>
      <point x="148" y="218" type="curve" smooth="yes"/>
      <point x="191" y="218"/>
      <point x="244" y="166"/>
      <point x="303" y="166" type="curve" smooth="yes"/>
      <point x="354" y="166"/>
      <point x="388" y="221"/>
      <point x="390" y="311" type="curve"/>
      <point x="322" y="311" type="line"/>
      <point x="317" y="276"/>
      <point x="313" y="258"/>
      <point x="290" y="258" type="curve" smooth="yes"/>
      <point x="240" y="258"/>
      <point x="197" y="310"/>
      <point x="134" y="310" type="curve" smooth="yes"/>
      <point x="67" y="310"/>
      <point x="51" y="228"/>
    </contour>
    <component base="uni027E"/>
  </outline>
</glyph>
<glyph name="uni1D7C" format="2">
  <advance width="500"/>
  <unicode hex="1D7C"/>
  <anchor x="323" y="0" name="bottom"/>
  <anchor x="241" y="546" name="top"/>
  <outline>
    <contour>
      <point x="66" y="271" type="line"/>
      <point x="422" y="271" type="line"/>
      <point x="422" y="366" type="line"/>
      <point x="66" y="366" type="line"/>
    </contour>
    <component base="iota"/>
  </outline>
</glyph>
<glyph name="uni1D7D" format="2">
  <advance width="500"/>
  <unicode hex="1D7D"/>
  <anchor x="264" y="-240" name="bottom"/>
  <anchor x="264" y="546" name="top"/>
  <anchor x="474" y="546" name="topright"/>
  <outline>
    <contour>
      <point x="0" y="228" type="line"/>
      <point x="500" y="228" type="line"/>
      <point x="500" y="319" type="line"/>
      <point x="0" y="319" type="line"/>
    </contour>
    <component base="p" xOffset="-6"/>
  </outline>
</glyph>
<glyph name="uni1D7F" format="2">
  <advance width="500"/>
  <unicode hex="1D7F"/>
  <anchor x="197" y="0" name="bottom"/>
  <anchor x="197" y="546" name="top"/>
  <outline>
    <contour>
      <point x="-1" y="228" type="line"/>
      <point x="500" y="228" type="line"/>
      <point x="500" y="319" type="line"/>
      <point x="-1" y="319" type="line"/>
    </contour>
    <component base="uni028A" xOffset="-2"/>
  </outline>
</glyph>
<glyph name="uni1D85" format="2">
  <advance width="500"/>
  <unicode hex="1D85"/>
  <anchor x="258" y="0" name="bottom"/>
  <anchor x="258" y="370" name="center"/>
  <anchor x="250" y="760" name="top"/>
  <anchor x="426" y="760" name="topright"/>
  <outline>
    <contour>
      <point x="311" y="-216" type="curve" smooth="yes"/>
      <point x="397" y="-216"/>
      <point x="445" y="-160"/>
      <point x="445" y="-46" type="curve" smooth="yes"/>
      <point x="445" y="84" type="line"/>
      <point x="318" y="84" type="line"/>
      <point x="318" y="0" type="line"/>
      <point x="328" y="0" type="line"/>
      <point x="328" y="-46" type="line" smooth="yes"/>
      <point x="328" y="-93"/>
      <point x="314" y="-113"/>
      <point x="276" y="-113" type="curve" smooth="yes"/>
      <point x="261" y="-113"/>
      <point x="247" y="-110"/>
      <point x="231" y="-104" type="curve"/>
      <point x="231" y="-206" type="line"/>
      <point x="249" y="-213"/>
      <point x="275" y="-216"/>
    </contour>
    <component base="l"/>
  </outline>
</glyph>
<glyph name="uni1D86" format="2">
  <advance width="500"/>
  <unicode hex="1D86"/>
  <anchor x="257" y="0" name="bottom"/>
  <anchor x="280" y="546" name="top"/>
  <anchor x="480" y="546" name="topright"/>
  <outline>
    <contour>
      <point x="371" y="-216" type="curve" smooth="yes"/>
      <point x="454" y="-216"/>
      <point x="500" y="-160"/>
      <point x="500" y="-46" type="curve" smooth="yes"/>
      <point x="500" y="114" type="line"/>
      <point x="378" y="114" type="line"/>
      <point x="378" y="0" type="line"/>
      <point x="388" y="0" type="line"/>
      <point x="388" y="-52" type="line" smooth="yes"/>
      <point x="388" y="-99"/>
      <point x="374" y="-119"/>
      <point x="336" y="-119" type="curve" smooth="yes"/>
      <point x="321" y="-119"/>
      <point x="307" y="-116"/>
      <point x="291" y="-110" type="curve"/>
      <point x="291" y="-206" type="line"/>
      <point x="309" y="-213"/>
      <point x="335" y="-216"/>
    </contour>
    <component base="m"/>
  </outline>
</glyph>
<glyph name="uni1D8C" format="2">
  <advance width="500"/>
  <unicode hex="1D8C"/>
  <anchor x="250" y="0" name="bottom"/>
  <anchor x="250" y="546" name="top"/>
  <anchor x="480" y="546" name="topright"/>
  <outline>
    <contour>
      <point x="290" y="0" type="line"/>
      <point x="387" y="0" type="line"/>
      <point x="387" y="114" type="line"/>
      <point x="290" y="114" type="line"/>
    </contour>
    <component base="v"/>
    <component base="cyrillicbighooklc" xOffset="90"/>
  </outline>
</glyph>
<glyph name="uni1D90" format="2">
  <advance width="500"/>
  <unicode hex="1D90"/>
  <anchor x="250" y="0" name="bottom"/>
  <anchor x="250" y="546" name="top"/>
  <outline>
    <contour>
      <point x="509" y="-224" type="curve" smooth="yes"/>
      <point x="532" y="-224"/>
      <point x="556" y="-220"/>
      <point x="574" y="-214" type="curve"/>
      <point x="574" y="-117" type="line"/>
      <point x="562" y="-122"/>
      <point x="550" y="-125"/>
      <point x="538" y="-125" type="curve" smooth="yes"/>
      <point x="509" y="-125"/>
      <point x="498" y="-105"/>
      <point x="498" y="-57" type="curve" smooth="yes"/>
      <point x="498" y="100" type="line"/>
      <point x="380" y="10" type="line"/>
      <point x="380" y="-69" type="line" smooth="yes"/>
      <point x="380" y="-179"/>
      <point x="432" y="-224"/>
    </contour>
    <component base="uni0251"/>
  </outline>
</glyph>
<glyph name="uni1D96" format="2">
  <advance width="500"/>
  <unicode hex="1D96"/>
  <anchor x="260" y="0" name="bottom"/>
  <anchor x="254" y="292" name="center"/>
  <anchor x="261" y="771" name="top"/>
  <anchor x="427" y="771" name="topright"/>
  <outline>
    <contour>
      <point x="456" y="-224" type="curve" smooth="yes"/>
      <point x="479" y="-224"/>
      <point x="503" y="-220"/>
      <point x="521" y="-214" type="curve"/>
      <point x="521" y="-117" type="line"/>
      <point x="509" y="-122"/>
      <point x="497" y="-125"/>
      <point x="485" y="-125" type="curve" smooth="yes"/>
      <point x="456" y="-125"/>
      <point x="445" y="-105"/>
      <point x="445" y="-57" type="curve" smooth="yes"/>
      <point x="445" y="74" type="line"/>
      <point x="327" y="10" type="line"/>
      <point x="327" y="-69" type="line" smooth="yes"/>
      <point x="327" y="-179"/>
      <point x="379" y="-224"/>
    </contour>
    <component base="i"/>
  </outline>
</glyph>
<glyph name="uni1D99" format="2">
  <advance width="500"/>
  <unicode hex="1D99"/>
  <anchor x="250" y="0" name="bottom"/>
  <anchor x="450" y="10" name="ogonek"/>
  <anchor x="250" y="546" name="top"/>
  <anchor x="480" y="546" name="topright"/>
  <outline>
    <contour>
      <point x="505" y="-214" type="curve" smooth="yes"/>
      <point x="530" y="-214"/>
      <point x="558" y="-210"/>
      <point x="576" y="-204" type="curve"/>
      <point x="576" y="-117" type="line"/>
      <point x="564" y="-122"/>
      <point x="552" y="-125"/>
      <point x="541" y="-125" type="curve" smooth="yes"/>
      <point x="511" y="-125"/>
      <point x="500" y="-105"/>
      <point x="500" y="-57" type="curve" smooth="yes"/>
      <point x="500" y="109" type="line"/>
      <point x="443" y="109" type="line"/>
      <point x="371" y="0" type="line"/>
      <point x="392" y="0" type="line"/>
      <point x="392" y="-69" type="line" smooth="yes"/>
      <point x="392" y="-175"/>
      <point x="427" y="-214"/>
    </contour>
    <component base="u"/>
  </outline>
</glyph>
<glyph name="longsdiagonalstroke" format="2">
  <advance width="500"/>
  <unicode hex="1E9C"/>
  <anchor x="239" y="0" name="bottom"/>
  <anchor x="250" y="765" name="top"/>
  <outline>
    <contour>
      <point x="119" y="310" type="line"/>
      <point x="400" y="447" type="line"/>
      <point x="361" y="532" type="line"/>
      <point x="81" y="395" type="line"/>
    </contour>
    <component base="longs"/>
  </outline>
</glyph>
<glyph name="uni1F18" format="2">
  <advance width="500"/>
  <unicode hex="1F18"/>
  <anchor x="270" y="0" name="bottom"/>
  <anchor x="256" y="714" name="top"/>
  <outline>
    <contour>
      <point x="145" y="0" type="line"/>
      <point x="450" y="0" type="line"/>
      <point x="450" y="119" type="line"/>
      <point x="273" y="119" type="line"/>
      <point x="273" y="302" type="line"/>
      <point x="432" y="302" type="line"/>
      <point x="432" y="421" type="line"/>
      <point x="273" y="421" type="line"/>
      <point x="273" y="595" type="line"/>
      <point x="450" y="595" type="line"/>
      <point x="450" y="714" type="line"/>
      <point x="145" y="714" type="line"/>
    </contour>
    <component base="uni1FBD" xOffset="-195" yOffset="-44"/>
  </outline>
</glyph>
<glyph name="uni1F29" format="2">
  <advance width="500"/>
  <unicode hex="1F29"/>
  <anchor x="295" y="0" name="bottom"/>
  <anchor x="295" y="357" name="center"/>
  <anchor x="295" y="714" name="top"/>
  <anchor x="40" y="714" name="topleft"/>
  <outline>
    <contour>
      <point x="129" y="0" type="line"/>
      <point x="252" y="0" type="line"/>
      <point x="252" y="307" type="line"/>
      <point x="342" y="307" type="line"/>
      <point x="342" y="0" type="line"/>
      <point x="465" y="0" type="line"/>
      <point x="465" y="714" type="line"/>
      <point x="342" y="714" type="line"/>
      <point x="342" y="431" type="line"/>
      <point x="252" y="431" type="line"/>
      <point x="252" y="714" type="line"/>
      <point x="129" y="714" type="line"/>
    </contour>
    <component base="uni1FFE" xOffset="-201" yOffset="-50"/>
  </outline>
</glyph>
<glyph name="uni1F38" format="2">
  <advance width="500"/>
  <unicode hex="1F38"/>
  <anchor x="326" y="0" name="bottom"/>
  <anchor x="326" y="714" name="top"/>
  <outline>
    <contour>
      <point x="150" y="0" type="line"/>
      <point x="490" y="0" type="line"/>
      <point x="490" y="99" type="line"/>
      <point x="382" y="112" type="line"/>
      <point x="382" y="604" type="line"/>
      <point x="490" y="615" type="line"/>
      <point x="490" y="714" type="line"/>
      <point x="150" y="714" type="line"/>
      <point x="150" y="615" type="line"/>
      <point x="259" y="604" type="line"/>
      <point x="259" y="112" type="line"/>
      <point x="150" y="99" type="line"/>
    </contour>
    <component base="uni1FBD" xOffset="-192" yOffset="-44"/>
  </outline>
</glyph>
<glyph name="uni1F3F" format="2">
  <advance width="500"/>
  <unicode hex="1F3F"/>
  <anchor x="365" y="0" name="bottom"/>
  <anchor x="365" y="714" name="top"/>
  <outline>
    <contour>
      <point x="244" y="0" type="line"/>
      <point x="484" y="0" type="line"/>
      <point x="484" y="99" type="line"/>
      <point x="426" y="112" type="line"/>
      <point x="426" y="604" type="line"/>
      <point x="484" y="615" type="line"/>
      <point x="484" y="714" type="line"/>
      <point x="244" y="714" type="line"/>
      <point x="244" y="615" type="line"/>
      <point x="303" y="604" type="line"/>
      <point x="303" y="112" type="line"/>
      <point x="244" y="99" type="line"/>
    </contour>
    <component base="uni1FDF" xOffset="-125" yOffset="-50"/>
  </outline>
</glyph>
<glyph name="uni1FEB" format="2">
  <advance width="500"/>
  <unicode hex="1FEB"/>
  <anchor x="293" y="0" name="bottom"/>
  <anchor x="293" y="714" name="top"/>
  <outline>
    <contour>
      <point x="229" y="0" type="line"/>
      <point x="357" y="0" type="line"/>
      <point x="357" y="277" type="line"/>
      <point x="499" y="714" type="line"/>
      <point x="355" y="714" type="line"/>
      <point x="295" y="423" type="line"/>
      <point x="230" y="714" type="line"/>
      <point x="88" y="714" type="line"/>
      <point x="229" y="277" type="line"/>
    </contour>
    <component base="uni1FFD" xOffset="-281" yOffset="-57"/>
  </outline>
</glyph>
<glyph name="uni1FEF" format="2">
  <advance width="500"/>
  <unicode hex="1FEF"/>
  <anchor x="250" y="546" name="_top"/>
  <anchor x="250" y="770" name="top"/>
  <outline>
    <contour>
      <point x="213" y="606" type="curve"/>
      <point x="286" y="606" type="line"/>
      <point x="286" y="621" type="line"/>
      <point x="277" y="657"/>
      <point x="266" y="722"/>
      <point x="262" y="770" type="curve"/>
      <point x="142" y="770" type="line"/>
      <point x="142" y="758" type="line"/>
      <point x="161" y="708"/>
      <point x="186" y="652"/>
    </contour>
  </outline>
</glyph>
<glyph name="uni1FFD" format="2">
  <advance width="500"/>
  <unicode hex="1FFD"/>
  <anchor x="250" y="546" name="_top"/>
  <anchor x="250" y="770" name="top"/>
  <outline>
    <contour>
      <point x="209" y="606" type="line"/>
      <point x="282" y="606" type="line"/>
      <point x="309" y="652"/>
      <point x="334" y="708"/>
      <point x="353" y="758" type="curve"/>
      <point x="353" y="770" type="line"/>
      <point x="233" y="770" type="line"/>
      <point x="229" y="722"/>
      <point x="218" y="657"/>
      <point x="209" y="621" type="curve"/>
    </contour>
  </outline>
</glyph>
<glyph name="uni2012" format="2">
  <advance width="500"/>
  <unicode hex="2012"/>
  <outline>
    <contour>
      <point x="48" y="305" type="line"/>
      <point x="452" y="305" type="line"/>
      <point x="452" y="414" type="line"/>
      <point x="48" y="414" type="line"/>
    </contour>
  </outline>
</glyph>
<glyph name="tironiansignet" format="2">
  <advance width="500"/>
  <unicode hex="204A"/>
  <outline>
    <contour>
      <point x="339" y="0" type="line"/>
      <point x="442" y="0" type="line"/>
      <point x="442" y="547" type="line"/>
      <point x="40" y="547" type="line"/>
      <point x="40" y="444" type="line"/>
      <point x="339" y="444" type="line"/>
    </contour>
  </outline>
</glyph>
<glyph name="plussuperior" format="2">
  <advance width="500"/>
  <unicode hex="207A"/>
  <outline>
    <contour>
      <point x="214" y="302" type="line"/>
      <point x="286" y="302" type="line"/>
      <point x="286" y="415" type="line"/>
      <point x="399" y="415" type="line"/>
      <point x="399" y="486" type="line"/>
      <point x="286" y="486" type="line"/>
      <point x="286" y="599" type="line"/>
      <point x="214" y="599" type="line"/>
      <point x="214" y="486" type="line"/>
      <point x="101" y="486" type="line"/>
      <point x="101" y="415" type="line"/>
      <point x="214" y="415" type="line"/>
    </contour>
  </outline>
</glyph>
<glyph name="parenleftsuperior" format="2">
  <advance width="500"/>
  <unicode hex="207D"/>
  <outline>
    <contour>
      <point x="251" y="220" type="curve"/>
      <point x="338" y="220" type="line"/>
      <point x="279" y="296"/>
      <point x="251" y="400"/>
      <point x="251" y="499" type="curve" smooth="yes"/>
      <point x="251" y="599"/>
      <point x="279" y="701"/>
      <point x="339" y="778" type="curve"/>
      <point x="251" y="778" type="line"/>
      <point x="188" y="704"/>
      <point x="161" y="605"/>
      <point x="161" y="498" type="curve" smooth="yes"/>
      <point x="161" y="391"/>
      <point x="188" y="291"/>
    </contour>
  </outline>
</glyph>
<glyph name="parenrightsuperior" format="2">
  <advance width="500"/>
  <unicode hex="207E"/>
  <outline>
    <contour>
      <point x="161" y="220" type="curve"/>
      <point x="249" y="220" type="line"/>
      <point x="312" y="295"/>
      <point x="339" y="394"/>
      <point x="339" y="501" type="curve" smooth="yes"/>
      <point x="339" y="605"/>
      <point x="312" y="706"/>
      <point x="249" y="778" type="curve"/>
      <point x="162" y="778" type="line"/>
      <point x="221" y="703"/>
      <point x="249" y="600"/>
      <point x="249" y="501" type="curve" smooth="yes"/>
      <point x="249" y="401"/>
      <point x="222" y="298"/>
    </contour>
  </outline>
</glyph>
<glyph name="uni20A9" format="2">
  <advance width="500"/>
  <unicode hex="20A9"/>
  <outline>
    <contour>
      <point x="91" y="0" type="line"/>
      <point x="187" y="0" type="line"/>
      <point x="216" y="249" type="line"/>
      <point x="281" y="249" type="line"/>
      <point x="310" y="0" type="line"/>
      <point x="406" y="0" type="line"/>
      <point x="435" y="249" type="line"/>
      <point x="494" y="249" type="line"/>
      <point x="494" y="318" type="line"/>
      <point x="442" y="318" type="line"/>
      <point x="450" y="396" type="line"/>
      <point x="494" y="396" type="line"/>
      <point x="494" y="465" type="line"/>
      <point x="458" y="465" type="line"/>
      <point x="486" y="714" type="line"/>
      <point x="409" y="714" type="line"/>
      <point x="384" y="465" type="line"/>
      <point x="321" y="465" type="line"/>
      <point x="292" y="714" type="line"/>
      <point x="205" y="714" type="line"/>
      <point x="176" y="465" type="line"/>
      <point x="113" y="465" type="line"/>
      <point x="88" y="714" type="line"/>
      <point x="11" y="714" type="line"/>
      <point x="38" y="465" type="line"/>
      <point x="4" y="465" type="line"/>
      <point x="4" y="396" type="line"/>
      <point x="47" y="396" type="line"/>
      <point x="55" y="318" type="line"/>
      <point x="4" y="318" type="line"/>
      <point x="4" y="249" type="line"/>
      <point x="62" y="249" type="line"/>
    </contour>
    <contour>
      <point x="142" y="147" type="line"/>
      <point x="134" y="249" type="line"/>
      <point x="152" y="249" type="line"/>
    </contour>
    <contour>
      <point x="128" y="318" type="line"/>
      <point x="121" y="396" type="line"/>
      <point x="167" y="396" type="line"/>
      <point x="160" y="318" type="line"/>
    </contour>
    <contour>
      <point x="354" y="147" type="line"/>
      <point x="344" y="249" type="line"/>
      <point x="364" y="249" type="line"/>
    </contour>
    <contour>
      <point x="225" y="318" type="line"/>
      <point x="233" y="396" type="line"/>
      <point x="264" y="396" type="line"/>
      <point x="272" y="318" type="line"/>
    </contour>
    <contour>
      <point x="337" y="318" type="line"/>
      <point x="330" y="396" type="line"/>
      <point x="377" y="396" type="line"/>
      <point x="371" y="318" type="line"/>
    </contour>
    <contour>
      <point x="240" y="465" type="line"/>
      <point x="248" y="559" type="line"/>
      <point x="257" y="465" type="line"/>
    </contour>
  </outline>
</glyph>
<glyph name="uni20AE" format="2">
  <advance width="500"/>
  <unicode hex="20AE"/>
  <anchor x="250" y="0" name="bottom"/>
  <anchor x="250" y="357" name="center"/>
  <anchor x="250" y="714" name="top"/>
  <anchor x="480" y="714" name="topright"/>
  <outline>
    <contour>
      <point x="90" y="245" type="line"/>
      <point x="442" y="461" type="line"/>
      <point x="407" y="519" type="line"/>
      <point x="55" y="302" type="line"/>
    </contour>
    <contour>
      <point x="93" y="81" type="line"/>
      <point x="442" y="297" type="line"/>
      <point x="407" y="355" type="line"/>
      <point x="58" y="139" type="line"/>
    </contour>
    <component base="T"/>
  </outline>
</glyph>
<glyph name="uni20B5" format="2">
  <advance width="500"/>
  <unicode hex="20B5"/>
  <anchor x="299" y="0" name="bottom"/>
  <anchor x="308" y="714" name="top"/>
  <anchor x="480" y="714" name="topright"/>
  <outline>
    <contour>
      <point x="287" y="-77" type="line"/>
      <point x="360" y="-77" type="line"/>
      <point x="360" y="759" type="line"/>
      <point x="287" y="759" type="line"/>
    </contour>
    <component base="C"/>
  </outline>
</glyph>
<glyph name="accountof" format="2">
  <advance width="500"/>
  <unicode hex="2100"/>
  <anchor x="117.97800000000001" y="399.512" name="bottom"/>
  <anchor x="121.614" y="721.298" name="top"/>
  <outline>
    <contour>
      <point x="399" y="-4" type="curve" smooth="yes"/>
      <point x="434" y="-4"/>
      <point x="459" y="5"/>
      <point x="479" y="20" type="curve"/>
      <point x="479" y="91" type="line"/>
      <point x="458" y="75"/>
      <point x="432" y="67"/>
      <point x="409" y="67" type="curve" smooth="yes"/>
      <point x="368" y="67"/>
      <point x="342" y="95"/>
      <point x="342" y="155" type="curve" smooth="yes"/>
      <point x="342" y="216"/>
      <point x="369" y="252"/>
      <point x="409" y="252" type="curve" smooth="yes"/>
      <point x="426" y="252"/>
      <point x="443" y="245"/>
      <point x="465" y="234" type="curve"/>
      <point x="487" y="299" type="line"/>
      <point x="464" y="312"/>
      <point x="438" y="320"/>
      <point x="406" y="320" type="curve" smooth="yes"/>
      <point x="322" y="320"/>
      <point x="260" y="265"/>
      <point x="260" y="154" type="curve" smooth="yes"/>
      <point x="260" y="50"/>
      <point x="316" y="-4"/>
    </contour>
    <component base="ordfeminine" xScale="0.909" yScale="0.909" xOffset="-102" yOffset="65"/>
    <component base="fraction" xScale="0.867" xOffset="266"/>
  </outline>
</glyph>
<glyph name="afii61248" format="2">
  <advance width="500"/>
  <unicode hex="2105"/>
  <anchor x="347" y="-16" name="bottom"/>
  <anchor x="348" y="338" name="top"/>
  <outline>
    <contour>
      <point x="153" y="370" type="curve" smooth="yes"/>
      <point x="191" y="370"/>
      <point x="218" y="380"/>
      <point x="241" y="396" type="curve"/>
      <point x="241" y="474" type="line"/>
      <point x="217" y="457"/>
      <point x="189" y="448"/>
      <point x="164" y="448" type="curve" smooth="yes"/>
      <point x="118" y="448"/>
      <point x="90" y="479"/>
      <point x="90" y="545" type="curve" smooth="yes"/>
      <point x="90" y="612"/>
      <point x="119" y="651"/>
      <point x="163" y="651" type="curve" smooth="yes"/>
      <point x="182" y="651"/>
      <point x="201" y="644"/>
      <point x="225" y="632" type="curve"/>
      <point x="249" y="703" type="line"/>
      <point x="224" y="717"/>
      <point x="195" y="726"/>
      <point x="160" y="726" type="curve" smooth="yes"/>
      <point x="68" y="726"/>
      <point x="0" y="666"/>
      <point x="0" y="544" type="curve" smooth="yes"/>
      <point x="0" y="429"/>
      <point x="61" y="370"/>
    </contour>
    <component base="fraction" xOffset="227" yOffset="1"/>
    <component base="ordmasculine" xOffset="98" yOffset="-384"/>
  </outline>
</glyph>
<glyph name="cadauna" format="2">
  <advance width="500"/>
  <unicode hex="2106"/>
  <anchor x="144" y="309" name="_top"/>
  <anchor x="367" y="349" name="top"/>
  <outline>
    <contour>
      <point x="163" y="365" type="curve" smooth="yes"/>
      <point x="200" y="365"/>
      <point x="227" y="375"/>
      <point x="250" y="391" type="curve"/>
      <point x="250" y="474" type="line"/>
      <point x="226" y="457"/>
      <point x="199" y="448"/>
      <point x="171" y="448" type="curve" smooth="yes"/>
      <point x="140" y="448"/>
      <point x="119" y="481"/>
      <point x="119" y="546" type="curve" smooth="yes"/>
      <point x="119" y="613"/>
      <point x="140" y="649"/>
      <point x="171" y="649" type="curve" smooth="yes"/>
      <point x="192" y="649"/>
      <point x="210" y="642"/>
      <point x="234" y="630" type="curve"/>
      <point x="258" y="705" type="line"/>
      <point x="233" y="719"/>
      <point x="203" y="728"/>
      <point x="170" y="728" type="curve" smooth="yes"/>
      <point x="88" y="728"/>
      <point x="29" y="668"/>
      <point x="29" y="545" type="curve" smooth="yes"/>
      <point x="29" y="424"/>
      <point x="82" y="365"/>
    </contour>
    <contour>
      <point x="0" y="0" type="line"/>
      <point x="99" y="0" type="line"/>
      <point x="454" y="714" type="line"/>
      <point x="355" y="714" type="line"/>
    </contour>
    <contour>
      <point x="328" y="-7" type="curve" smooth="yes"/>
      <point x="364" y="-7"/>
      <point x="390" y="10"/>
      <point x="409" y="45" type="curve"/>
      <point x="413" y="45" type="line"/>
      <point x="425" y="0" type="line"/>
      <point x="500" y="0" type="line"/>
      <point x="500" y="349" type="line"/>
      <point x="406" y="349" type="line"/>
      <point x="406" y="180" type="line" smooth="yes"/>
      <point x="406" y="114"/>
      <point x="396" y="75"/>
      <point x="364" y="75" type="curve" smooth="yes"/>
      <point x="335" y="75"/>
      <point x="328" y="98"/>
      <point x="328" y="141" type="curve" smooth="yes"/>
      <point x="328" y="349" type="line"/>
      <point x="234" y="349" type="line"/>
      <point x="234" y="119" type="line" smooth="yes"/>
      <point x="234" y="34"/>
      <point x="269" y="-7"/>
    </contour>
  </outline>
</glyph>
<glyph name="response" format="2">
  <advance width="500"/>
  <unicode hex="211F"/>
  <anchor x="264" y="0" name="bottom"/>
  <anchor x="250" y="714" name="top"/>
  <anchor x="480" y="714" name="topright"/>
  <outline>
    <contour>
      <point x="106" y="-145" type="line"/>
      <point x="167" y="-145" type="line"/>
      <point x="393" y="804" type="line"/>
      <point x="166" y="863" type="line"/>
      <point x="150" y="802" type="line"/>
      <point x="320" y="763" type="line"/>
    </contour>
    <component base="R"/>
  </outline>
</glyph>
<glyph name="versicle" format="2">
  <advance width="500"/>
  <unicode hex="2123"/>
  <anchor x="250" y="0" name="bottom"/>
  <anchor x="250" y="714" name="top"/>
  <anchor x="480" y="714" name="topright"/>
  <outline>
    <contour>
      <point x="66" y="-145" type="line"/>
      <point x="127" y="-145" type="line"/>
      <point x="311" y="808" type="line"/>
      <point x="84" y="866" type="line"/>
      <point x="68" y="805" type="line"/>
      <point x="238" y="766" type="line"/>
    </contour>
    <component base="V"/>
  </outline>
</glyph>
<glyph name="notequal" format="2">
  <advance width="500"/>
  <unicode hex="2260"/>
  <outline>
    <contour>
      <point x="207" y="57" type="line"/>
      <point x="412" y="598" type="line"/>
      <point x="304" y="637" type="line"/>
      <point x="100" y="95" type="line"/>
    </contour>
    <component base="equal"/>
  </outline>
</glyph>
<glyph name="uni2C60" format="2">
  <advance width="500"/>
  <unicode hex="2C60"/>
  <anchor x="298" y="0" name="bottom"/>
  <anchor x="156" y="714" name="top"/>
  <anchor x="280" y="357" name="center"/>
  <anchor x="399" y="714" name="topright"/>
  <outline>
    <contour>
      <point x="30" y="399" type="line"/>
      <point x="380" y="399" type="line"/>
      <point x="380" y="466" type="line"/>
      <point x="30" y="466" type="line"/>
    </contour>
    <contour>
      <point x="30" y="262" type="line"/>
      <point x="380" y="262" type="line"/>
      <point x="380" y="329" type="line"/>
      <point x="30" y="329" type="line"/>
    </contour>
    <component base="L" xOffset="30"/>
  </outline>
</glyph>
<glyph name="uni2C61" format="2">
  <advance width="500"/>
  <unicode hex="2C61"/>
  <anchor x="250" y="0" name="bottom"/>
  <anchor x="250" y="760" name="top"/>
  <outline>
    <contour>
      <point x="184" y="0" type="line"/>
      <point x="315" y="0" type="line"/>
      <point x="315" y="262" type="line"/>
      <point x="391" y="262" type="line"/>
      <point x="391" y="329" type="line"/>
      <point x="315" y="329" type="line"/>
      <point x="315" y="399" type="line"/>
      <point x="391" y="399" type="line"/>
      <point x="391" y="466" type="line"/>
      <point x="315" y="466" type="line"/>
      <point x="315" y="760" type="line"/>
      <point x="184" y="760" type="line"/>
      <point x="184" y="466" type="line"/>
      <point x="108" y="466" type="line"/>
      <point x="108" y="399" type="line"/>
      <point x="184" y="399" type="line"/>
      <point x="184" y="329" type="line"/>
      <point x="108" y="329" type="line"/>
      <point x="108" y="262" type="line"/>
      <point x="184" y="262" type="line"/>
    </contour>
  </outline>
</glyph>
<glyph name="uni2C65" format="2">
  <advance width="500"/>
  <unicode hex="2C65"/>
  <anchor x="250" y="-208" name="bottom"/>
  <anchor x="250" y="760" name="top"/>
  <anchor x="450" y="10" name="ogonek"/>
  <anchor x="480" y="546" name="topright"/>
  <outline>
    <contour>
      <point x="129" y="-208" type="line"/>
      <point x="189" y="-208" type="line"/>
      <point x="441" y="760" type="line"/>
      <point x="381" y="760" type="line"/>
    </contour>
    <component base="a"/>
  </outline>
</glyph>
<glyph name="uni2C6B" format="2">
  <advance width="500"/>
  <unicode hex="2C6B"/>
  <anchor x="250" y="-189" name="bottom"/>
  <anchor x="260" y="714" name="top"/>
  <anchor x="480" y="714" name="topright"/>
  <outline>
    <contour>
      <point x="328" y="-211" type="line"/>
      <point x="455" y="-211" type="line"/>
      <point x="455" y="119" type="line"/>
      <point x="369" y="119" type="line"/>
      <point x="328" y="17" type="line"/>
    </contour>
    <component base="Z"/>
  </outline>
</glyph>
<glyph name="uni2C6C" format="2">
  <advance width="500"/>
  <unicode hex="2C6C"/>
  <anchor x="256" y="-189" name="bottom"/>
  <anchor x="260" y="546" name="top"/>
  <anchor x="480" y="546" name="topright"/>
  <outline>
    <contour>
      <point x="328" y="-197" type="line"/>
      <point x="445" y="-197" type="line"/>
      <point x="445" y="114" type="line"/>
      <point x="364" y="114" type="line"/>
      <point x="328" y="14" type="line"/>
    </contour>
    <component base="z"/>
  </outline>
</glyph>
<glyph name="uniA65D" format="2">
  <advance width="1000"/>
  <unicode hex="A65D"/>
  <outline>
    <contour>
      <point x="161" y="0" type="line"/>
      <point x="283" y="0" type="line"/>
      <point x="283" y="229" type="line"/>
      <point x="573" y="229" type="line"/>
      <point x="573" y="333" type="line"/>
      <point x="283" y="333" type="line"/>
      <point x="283" y="546" type="line"/>
      <point x="161" y="546" type="line"/>
    </contour>
    <component base="uniA659" xOffset="432"/>
  </outline>
</glyph>
<glyph name="uniA680" format="2">
  <advance width="500"/>
  <unicode hex="A680"/>
  <anchor x="252" y="-206" name="bottom"/>
  <anchor x="292" y="714" name="top"/>
  <outline>
    <contour>
      <point x="138" y="650" type="line"/>
      <point x="256" y="650" type="line"/>
      <point x="256" y="920" type="line"/>
      <point x="138" y="920" type="line"/>
    </contour>
    <component base="afii10021" xOffset="2"/>
  </outline>
</glyph>
<glyph name="uniA681" format="2">
  <advance width="500"/>
  <unicode hex="A681"/>
  <anchor x="250" y="-195" name="bottom"/>
  <anchor x="290" y="546" name="top"/>
  <outline>
    <contour>
      <point x="148" y="477" type="line"/>
      <point x="253" y="477" type="line"/>
      <point x="253" y="739" type="line"/>
      <point x="148" y="739" type="line"/>
    </contour>
    <component base="afii10069"/>
  </outline>
</glyph>
<glyph name="uniA684" format="2">
  <advance width="1000"/>
  <unicode hex="A684"/>
  <anchor x="250" y="0" name="bottom_1"/>
  <anchor x="757" y="0" name="bottom_2"/>
  <anchor x="980" y="0" name="bottomright"/>
  <anchor x="250" y="714" name="top_1"/>
  <anchor x="750" y="714" name="top_2"/>
  <outline>
    <contour>
      <point x="182" y="316" type="line"/>
      <point x="582" y="316" type="line"/>
      <point x="582" y="426" type="line"/>
      <point x="182" y="426" type="line"/>
    </contour>
    <component base="afii10025"/>
    <component base="afii10028" xOffset="500"/>
  </outline>
</glyph>
<glyph name="uniA69E" format="2">
  <unicode hex="A69E"/>
  <outline>
    <contour>
      <point x="-39" y="121" type="line"/>
      <point x="40" y="121" type="line"/>
      <point x="40" y="271" type="line"/>
      <point x="144" y="281"/>
      <point x="192" y="351"/>
      <point x="192" y="448" type="curve" smooth="yes"/>
      <point x="192" y="545"/>
      <point x="141" y="614"/>
      <point x="40" y="626" type="curve"/>
      <point x="40" y="760" type="line"/>
      <point x="-41" y="760" type="line"/>
      <point x="-41" y="626" type="line"/>
      <point x="-147" y="616"/>
      <point x="-193" y="548"/>
      <point x="-193" y="448" type="curve" smooth="yes"/>
      <point x="-193" y="351"/>
      <point x="-140" y="282"/>
      <point x="-39" y="271" type="curve"/>
    </contour>
    <contour>
      <point x="-41" y="341" type="line"/>
      <point x="-76" y="345"/>
      <point x="-100" y="387"/>
      <point x="-100" y="448" type="curve" smooth="yes"/>
      <point x="-100" y="509"/>
      <point x="-74" y="550"/>
      <point x="-41" y="555" type="curve"/>
    </contour>
    <contour>
      <point x="40" y="341" type="curve"/>
      <point x="40" y="555" type="line"/>
      <point x="74" y="550"/>
      <point x="101" y="509"/>
      <point x="101" y="448" type="curve" smooth="yes"/>
      <point x="101" y="387"/>
      <point x="76" y="345"/>
    </contour>
  </outline>
</glyph>
<glyph name="uniA726" format="2">
  <advance width="500"/>
  <unicode hex="A726"/>
  <anchor x="250" y="0" name="bottom"/>
  <anchor x="250" y="369" name="center"/>
  <anchor x="250" y="714" name="top"/>
  <anchor x="20" y="714" name="topleft"/>
  <anchor x="500" y="714" name="topright"/>
  <outline>
    <contour>
      <point x="299" y="-212" type="curve" smooth="yes"/>
      <point x="409" y="-212"/>
      <point x="465" y="-154"/>
      <point x="465" y="-11" type="curve" smooth="yes"/>
      <point x="465" y="108" type="line"/>
      <point x="337" y="118" type="line"/>
      <point x="337" y="-3" type="line" smooth="yes"/>
      <point x="337" y="-73"/>
      <point x="329" y="-104"/>
      <point x="278" y="-104" type="curve" smooth="yes"/>
      <point x="260" y="-104"/>
      <point x="242" y="-100"/>
      <point x="226" y="-94" type="curve"/>
      <point x="226" y="-201" type="line"/>
      <point x="250" y="-209"/>
      <point x="274" y="-212"/>
    </contour>
    <component base="H"/>
  </outline>
</glyph>
<glyph name="uniA728" format="2">
  <advance width="1000"/>
  <unicode hex="A728"/>
  <anchor x="306" y="0" name="bottom"/>
  <anchor x="306" y="357" name="center"/>
  <anchor x="306" y="714" name="top"/>
  <anchor x="536" y="714" name="topright"/>
  <outline>
    <contour>
      <point x="626" y="-241" type="curve" smooth="yes"/>
      <point x="806" y="-241"/>
      <point x="885" y="-157"/>
      <point x="885" y="-20" type="curve" smooth="yes"/>
      <point x="885" y="92"/>
      <point x="824" y="175"/>
      <point x="692" y="191" type="curve"/>
      <point x="858" y="385" type="line"/>
      <point x="858" y="483" type="line"/>
      <point x="281" y="483" type="line"/>
      <point x="281" y="365" type="line"/>
      <point x="692" y="365" type="line"/>
      <point x="542" y="185" type="line"/>
      <point x="542" y="93" type="line"/>
      <point x="598" y="93" type="line" smooth="yes"/>
      <point x="693" y="93"/>
      <point x="744" y="57"/>
      <point x="744" y="-13" type="curve" smooth="yes"/>
      <point x="744" y="-88"/>
      <point x="702" y="-122"/>
      <point x="604" y="-122" type="curve" smooth="yes"/>
      <point x="553" y="-122"/>
      <point x="483" y="-103"/>
      <point x="442" y="-74" type="curve"/>
      <point x="442" y="-204" type="line"/>
      <point x="489" y="-228"/>
      <point x="555" y="-241"/>
    </contour>
    <component base="T" xOffset="56"/>
  </outline>
</glyph>
<glyph name="uniA73C" format="2">
  <advance width="1000"/>
  <unicode hex="A73C"/>
  <outline>
    <contour>
      <point x="479" y="-240" type="curve" smooth="yes"/>
      <point x="604" y="-240"/>
      <point x="663" y="-169"/>
      <point x="697" y="-32" type="curve" smooth="yes"/>
      <point x="705" y="0" type="line"/>
      <point x="557" y="0" type="line"/>
      <point x="540" y="-53" type="line" smooth="yes"/>
      <point x="524" y="-102"/>
      <point x="506" y="-123"/>
      <point x="460" y="-123" type="curve" smooth="yes"/>
      <point x="438" y="-123"/>
      <point x="417" y="-118"/>
      <point x="397" y="-107" type="curve"/>
      <point x="397" y="-226" type="line"/>
      <point x="421" y="-235"/>
      <point x="446" y="-240"/>
    </contour>
    <component base="uniA738"/>
  </outline>
</glyph>
<glyph name="uniA742" format="2">
  <advance width="500"/>
  <unicode hex="A742"/>
  <anchor x="256" y="0" name="bottom"/>
  <anchor x="250" y="714" name="top"/>
  <anchor x="480" y="714" name="topright"/>
  <outline>
    <contour>
      <point x="248" y="60" type="line"/>
      <point x="479" y="224" type="line"/>
      <point x="419" y="306" type="line"/>
      <point x="192" y="143" type="line"/>
    </contour>
    <component base="K"/>
  </outline>
</glyph>
<glyph name="uniA743" format="2">
  <advance width="500"/>
  <unicode hex="A743"/>
  <anchor x="264" y="0" name="bottom"/>
  <anchor x="280" y="760" name="top"/>
  <anchor x="480" y="760" name="topright"/>
  <outline>
    <contour>
      <point x="268" y="33" type="line"/>
      <point x="483" y="224" type="line"/>
      <point x="421" y="297" type="line"/>
      <point x="205" y="107" type="line"/>
    </contour>
    <component base="k"/>
  </outline>
</glyph>
<glyph name="uniA748" format="2">
  <advance width="500"/>
  <unicode hex="A748"/>
  <anchor x="300" y="0" name="bottom"/>
  <anchor x="280" y="357" name="center"/>
  <anchor x="158" y="714" name="top"/>
  <anchor x="399" y="714" name="topright"/>
  <outline>
    <contour>
      <point x="30" y="532" type="line"/>
      <point x="320" y="532" type="line"/>
      <point x="320" y="629" type="line"/>
      <point x="30" y="629" type="line"/>
    </contour>
    <component base="L" xOffset="30"/>
  </outline>
</glyph>
<glyph name="uniA749" format="2">
  <advance width="500"/>
  <unicode hex="A749"/>
  <anchor x="258" y="0" name="bottom"/>
  <anchor x="258" y="370" name="center"/>
  <anchor x="250" y="760" name="top"/>
  <anchor x="426" y="760" name="topright"/>
  <outline>
    <contour>
      <point x="95" y="478" type="line"/>
      <point x="418" y="478" type="line"/>
      <point x="418" y="575" type="line"/>
      <point x="95" y="575" type="line"/>
    </contour>
    <component base="l"/>
  </outline>
</glyph>
<glyph name="uniA74B" format="2">
  <advance width="500"/>
  <unicode hex="A74B"/>
  <anchor x="250" y="0" name="bottom"/>
  <anchor x="250" y="273" name="center"/>
  <anchor x="245" y="10" name="ogonek"/>
  <anchor x="250" y="546" name="top"/>
  <anchor x="480" y="546" name="topright"/>
  <outline>
    <contour>
      <point x="0" y="229" type="line"/>
      <point x="500" y="229" type="line"/>
      <point x="500" y="325" type="line"/>
      <point x="0" y="325" type="line"/>
    </contour>
    <component base="o"/>
  </outline>
</glyph>
<glyph name="uniA750" format="2">
  <advance width="500"/>
  <unicode hex="A750"/>
  <anchor x="250" y="0" name="bottom"/>
  <anchor x="250" y="714" name="top"/>
  <anchor x="500" y="714" name="topright"/>
  <outline>
    <contour>
      <point x="0" y="88" type="line"/>
      <point x="313" y="88" type="line"/>
      <point x="313" y="184" type="line"/>
      <point x="0" y="184" type="line"/>
    </contour>
    <component base="P"/>
  </outline>
</glyph>
<glyph name="uniA751" format="2">
  <advance width="500"/>
  <unicode hex="A751"/>
  <anchor x="270" y="-240" name="bottom"/>
  <anchor x="270" y="546" name="top"/>
  <anchor x="480" y="546" name="topright"/>
  <outline>
    <contour>
      <point x="0" y="-170" type="line"/>
      <point x="338" y="-170" type="line"/>
      <point x="338" y="-74" type="line"/>
      <point x="0" y="-74" type="line"/>
    </contour>
    <component base="p"/>
  </outline>
</glyph>
<glyph name="uniA756" format="2">
  <advance width="500"/>
  <unicode hex="A756"/>
  <anchor x="250" y="-220" name="bottom"/>
  <anchor x="250" y="357" name="center"/>
  <anchor x="248" y="10" name="ogonek"/>
  <anchor x="250" y="714" name="top"/>
  <anchor x="20" y="714" name="topleft"/>
  <anchor x="500" y="714" name="topright"/>
  <outline>
    <contour>
      <point x="227" y="-173" type="line"/>
      <point x="540" y="-49" type="line"/>
      <point x="507" y="29" type="line"/>
      <point x="195" y="-96" type="line"/>
    </contour>
    <component base="Q"/>
  </outline>
</glyph>
<glyph name="uniA758" format="2">
  <advance width="500"/>
  <unicode hex="A758"/>
  <anchor x="250" y="-220" name="bottom"/>
  <anchor x="250" y="357" name="center"/>
  <anchor x="248" y="10" name="ogonek"/>
  <anchor x="250" y="714" name="top"/>
  <anchor x="20" y="714" name="topleft"/>
  <anchor x="500" y="714" name="topright"/>
  <outline>
    <contour>
      <point x="163" y="-240" type="line"/>
      <point x="542" y="3" type="line" smooth="yes"/>
      <point x="616" y="50"/>
      <point x="658" y="91"/>
      <point x="658" y="187" type="curve" smooth="yes"/>
      <point x="658" y="269"/>
      <point x="606" y="324"/>
      <point x="518" y="324" type="curve"/>
      <point x="518" y="256" type="line"/>
      <point x="568" y="256"/>
      <point x="587" y="221"/>
      <point x="587" y="182" type="curve" smooth="yes"/>
      <point x="587" y="138"/>
      <point x="568" y="102"/>
      <point x="507" y="63" type="curve" smooth="yes"/>
      <point x="126" y="-182" type="line"/>
    </contour>
    <component base="Q"/>
  </outline>
</glyph>
<glyph name="uniA75C" format="2">
  <advance width="500"/>
  <unicode hex="A75C"/>
  <outline>
    <contour>
      <point x="1" y="128" type="line"/>
      <point x="500" y="128" type="line"/>
      <point x="500" y="246" type="line"/>
      <point x="195" y="246" type="line"/>
      <point x="195" y="255" type="line"/>
      <point x="253" y="310" type="line" smooth="yes"/>
      <point x="332" y="385"/>
      <point x="369" y="457"/>
      <point x="369" y="538" type="curve" smooth="yes"/>
      <point x="369" y="653"/>
      <point x="300" y="725"/>
      <point x="182" y="725" type="curve" smooth="yes"/>
      <point x="104" y="725"/>
      <point x="44" y="694"/>
      <point x="-10" y="628" type="curve"/>
      <point x="55" y="536" type="line"/>
      <point x="92" y="583"/>
      <point x="123" y="606"/>
      <point x="163" y="606" type="curve" smooth="yes"/>
      <point x="206" y="606"/>
      <point x="235" y="580"/>
      <point x="235" y="526" type="curve" smooth="yes"/>
      <point x="235" y="472"/>
      <point x="204" y="423"/>
      <point x="127" y="351" type="curve" smooth="yes"/>
      <point x="1" y="233" type="line"/>
    </contour>
    <contour>
      <point x="329" y="0" type="line"/>
      <point x="464" y="0" type="line"/>
      <point x="464" y="349" type="line"/>
      <point x="329" y="349" type="line"/>
    </contour>
  </outline>
</glyph>
<glyph name="uniA760" format="2">
  <advance width="500"/>
  <unicode hex="A760"/>
  <anchor x="250" y="0" name="bottom"/>
  <anchor x="250" y="714" name="top"/>
  <anchor x="480" y="714" name="topright"/>
  <outline>
    <contour>
      <point x="247" y="-240" type="curve" smooth="yes"/>
      <point x="375" y="-240"/>
      <point x="446" y="-173"/>
      <point x="460" y="0" type="curve"/>
      <point x="349" y="0" type="line"/>
      <point x="341" y="-95"/>
      <point x="317" y="-137"/>
      <point x="236" y="-137" type="curve" smooth="yes"/>
      <point x="206" y="-137"/>
      <point x="183" y="-132"/>
      <point x="162" y="-121" type="curve"/>
      <point x="162" y="-226" type="line"/>
      <point x="187" y="-235"/>
      <point x="212" y="-240"/>
    </contour>
    <component base="W"/>
  </outline>
</glyph>
<glyph name="uniA764" format="2">
  <advance width="500"/>
  <unicode hex="A764"/>
  <outline>
    <contour>
      <point x="55" y="0" type="line"/>
      <point x="183" y="0" type="line"/>
      <point x="183" y="93" type="line"/>
      <point x="246" y="93" type="line" smooth="yes"/>
      <point x="395" y="93"/>
      <point x="467" y="186"/>
      <point x="467" y="314" type="curve" smooth="yes"/>
      <point x="467" y="446"/>
      <point x="396" y="523"/>
      <point x="252" y="523" type="curve" smooth="yes"/>
      <point x="183" y="523" type="line"/>
      <point x="183" y="575" type="line"/>
      <point x="291" y="575" type="line"/>
      <point x="291" y="671" type="line"/>
      <point x="183" y="671" type="line"/>
      <point x="183" y="714" type="line"/>
      <point x="55" y="714" type="line"/>
      <point x="55" y="671" type="line"/>
      <point x="2" y="671" type="line"/>
      <point x="2" y="575" type="line"/>
      <point x="55" y="575" type="line"/>
    </contour>
    <contour>
      <point x="183" y="212" type="line"/>
      <point x="183" y="406" type="line"/>
      <point x="242" y="406" type="line" smooth="yes"/>
      <point x="302" y="406"/>
      <point x="337" y="373"/>
      <point x="337" y="313" type="curve" smooth="yes"/>
      <point x="337" y="242"/>
      <point x="297" y="212"/>
      <point x="232" y="212" type="curve" smooth="yes"/>
    </contour>
  </outline>
</glyph>
<glyph name="uniA768" format="2">
  <advance width="500"/>
  <unicode hex="A768"/>
  <outline>
    <contour>
      <point x="26" y="-240" type="line"/>
      <point x="285" y="-240" type="line"/>
      <point x="285" y="-165" type="line"/>
      <point x="211" y="-138" type="line"/>
      <point x="211" y="-38" type="line"/>
      <point x="495" y="714" type="line"/>
      <point x="351" y="714" type="line"/>
      <point x="248" y="396" type="line" smooth="yes"/>
      <point x="237" y="362"/>
      <point x="225" y="324"/>
      <point x="212" y="240" type="curve"/>
      <point x="206" y="241" type="line"/>
      <point x="215" y="337"/>
      <point x="215" y="421"/>
      <point x="215" y="447" type="curve" smooth="yes"/>
      <point x="215" y="615" type="line"/>
      <point x="275" y="640" type="line"/>
      <point x="275" y="714" type="line"/>
      <point x="26" y="714" type="line"/>
      <point x="26" y="640" type="line"/>
      <point x="90" y="615" type="line"/>
      <point x="90" y="-141" type="line"/>
      <point x="26" y="-166" type="line"/>
    </contour>
  </outline>
</glyph>
<glyph name="uniA772" format="2">
  <advance width="500"/>
  <unicode hex="A772"/>
  <anchor x="293" y="0" name="bottom"/>
  <anchor x="293" y="370" name="center"/>
  <anchor x="285" y="760" name="top"/>
  <anchor x="461" y="760" name="topright"/>
  <outline>
    <contour>
      <point x="20" y="-157" type="line"/>
      <point x="112" y="-157" type="line"/>
      <point x="198" y="272" type="line"/>
      <point x="107" y="272" type="line"/>
    </contour>
    <contour>
      <point x="20" y="0" type="line"/>
      <point x="263" y="0" type="line"/>
      <point x="263" y="110" type="line"/>
      <point x="20" y="110" type="line"/>
    </contour>
    <component base="l" xOffset="35"/>
  </outline>
</glyph>
<glyph name="uniA790" format="2">
  <advance width="500"/>
  <unicode hex="A790"/>
  <anchor x="250" y="0" name="bottom"/>
  <anchor x="255" y="714" name="top"/>
  <anchor x="500" y="714" name="topright"/>
  <outline>
    <contour>
      <point x="347" y="-215" type="line"/>
      <point x="465" y="-215" type="line"/>
      <point x="465" y="119" type="line"/>
      <point x="402" y="119" type="line"/>
      <point x="347" y="0" type="line"/>
    </contour>
    <component base="N"/>
  </outline>
</glyph>
<glyph name="uniA792" format="2">
  <advance width="500"/>
  <unicode hex="A792"/>
  <anchor x="299" y="0" name="bottom"/>
  <anchor x="308" y="714" name="top"/>
  <anchor x="480" y="714" name="topright"/>
  <outline>
    <contour>
      <point x="0" y="302" type="line"/>
      <point x="377" y="302" type="line"/>
      <point x="377" y="405" type="line"/>
      <point x="0" y="405" type="line"/>
    </contour>
    <component base="C"/>
  </outline>
</glyph>
<glyph name="uniA793" format="2">
  <advance width="500"/>
  <unicode hex="A793"/>
  <anchor x="321" y="0" name="bottom"/>
  <anchor x="310" y="546" name="top"/>
  <anchor x="507" y="546" name="topright"/>
  <outline>
    <contour>
      <point x="17" y="231" type="line"/>
      <point x="357" y="231" type="line"/>
      <point x="357" y="327" type="line"/>
      <point x="17" y="327" type="line"/>
    </contour>
    <component base="c" xOffset="27"/>
  </outline>
</glyph>
<glyph name="uniA794" format="2">
  <advance width="500"/>
  <unicode hex="A794"/>
  <anchor x="294" y="0" name="bottom"/>
  <anchor x="283" y="546" name="top"/>
  <anchor x="480" y="546" name="topright"/>
  <outline>
    <contour>
      <point x="291" y="-238" type="curve" smooth="yes"/>
      <point x="399" y="-238"/>
      <point x="439" y="-158"/>
      <point x="439" y="-64" type="curve" smooth="yes"/>
      <point x="439" y="120" type="line"/>
      <point x="310" y="41" type="line"/>
      <point x="310" y="-38" type="line" smooth="yes"/>
      <point x="310" y="-108"/>
      <point x="286" y="-127"/>
      <point x="258" y="-127" type="curve" smooth="yes"/>
      <point x="242" y="-127"/>
      <point x="232" y="-124"/>
      <point x="213" y="-118" type="curve"/>
      <point x="213" y="-227" type="line"/>
      <point x="233" y="-234"/>
      <point x="266" y="-238"/>
    </contour>
    <component base="c"/>
  </outline>
</glyph>
<glyph name="uniA799" format="2">
  <advance width="500"/>
  <unicode hex="A799"/>
  <anchor x="250" y="0" name="bottom"/>
  <anchor x="311" y="765" name="top"/>
  <anchor x="480" y="765" name="topright"/>
  <outline>
    <contour>
      <point x="92" y="247" type="line"/>
      <point x="370" y="247" type="line"/>
      <point x="370" y="336" type="line"/>
      <point x="92" y="336" type="line"/>
    </contour>
    <component base="f"/>
  </outline>
</glyph>
<glyph name="uniA7A0" format="2">
  <advance width="500"/>
  <unicode hex="A7A0"/>
  <anchor x="286" y="0" name="bottom"/>
  <anchor x="281" y="714" name="top"/>
  <anchor x="480" y="714" name="topright"/>
  <outline>
    <contour>
      <point x="0" y="350" type="line"/>
      <point x="500" y="483" type="line"/>
      <point x="500" y="572" type="line"/>
      <point x="0" y="439" type="line"/>
    </contour>
    <component base="G"/>
  </outline>
</glyph>
<glyph name="uniA7A3" format="2">
  <advance width="500"/>
  <unicode hex="A7A3"/>
  <anchor x="264" y="0" name="bottom"/>
  <anchor x="280" y="760" name="top"/>
  <anchor x="480" y="760" name="topright"/>
  <outline>
    <contour>
      <point x="0" y="175" type="line"/>
      <point x="500" y="297" type="line"/>
      <point x="500" y="393" type="line"/>
      <point x="0" y="271" type="line"/>
    </contour>
    <component base="k"/>
  </outline>
</glyph>
<glyph name="uniA7A7" format="2">
  <advance width="500"/>
  <unicode hex="A7A7"/>
  <anchor x="201" y="0" name="bottom"/>
  <anchor x="269" y="546" name="top"/>
  <anchor x="480" y="546" name="topright"/>
  <outline>
    <contour>
      <point x="0" y="155" type="line"/>
      <point x="500" y="277" type="line"/>
      <point x="500" y="373" type="line"/>
      <point x="0" y="251" type="line"/>
    </contour>
    <component base="r"/>
  </outline>
</glyph>
<glyph name="uniA7A9" format="2">
  <advance width="500"/>
  <unicode hex="A7A9"/>
  <anchor x="256" y="0" name="bottom"/>
  <anchor x="256" y="546" name="top"/>
  <anchor x="480" y="546" name="topright"/>
  <outline>
    <contour>
      <point x="0" y="167" type="line"/>
      <point x="500" y="289" type="line"/>
      <point x="500" y="385" type="line"/>
      <point x="0" y="263" type="line"/>
    </contour>
    <component base="s"/>
  </outline>
</glyph>
<glyph name="uniA7AE" format="2">
  <advance width="500"/>
  <unicode hex="A7AE"/>
  <outline>
    <contour>
      <point x="46" y="0" type="line"/>
      <point x="454" y="0" type="line"/>
      <point x="454" y="66" type="line"/>
      <point x="302" y="85" type="line"/>
      <point x="302" y="460" type="line"/>
      <point x="454" y="479" type="line"/>
      <point x="454" y="545" type="line"/>
      <point x="46" y="545" type="line"/>
      <point x="46" y="479" type="line"/>
      <point x="199" y="460" type="line"/>
      <point x="199" y="85" type="line"/>
      <point x="46" y="66" type="line"/>
    </contour>
  </outline>
</glyph>
<glyph name="uniA7B9" format="2">
  <advance width="500"/>
  <unicode hex="A7B9"/>
  <anchor x="250" y="0" name="bottom"/>
  <anchor x="450" y="10" name="ogonek"/>
  <anchor x="250" y="546" name="top"/>
  <anchor x="480" y="546" name="topright"/>
  <outline>
    <contour>
      <point x="101" y="-69" type="line"/>
      <point x="481" y="554" type="line"/>
      <point x="419" y="593" type="line"/>
      <point x="38" y="-30" type="line"/>
    </contour>
    <component base="u"/>
  </outline>
</glyph>
<glyph name="uniA7C8" format="2">
  <advance width="500"/>
  <unicode hex="A7C8"/>
  <anchor x="250" y="0" name="bottom"/>
  <anchor x="250" y="273" name="center"/>
  <anchor x="250" y="761" name="top"/>
  <anchor x="480" y="761" name="topright"/>
  <outline>
    <contour>
      <point x="104" y="233" type="line"/>
      <point x="400" y="233" type="line"/>
      <point x="400" y="318" type="line"/>
      <point x="104" y="318" type="line"/>
    </contour>
    <component base="d"/>
  </outline>
</glyph>
<glyph name="uniA7C9" format="2">
  <advance width="500"/>
  <unicode hex="A7C9"/>
  <anchor x="250" y="0" name="bottom"/>
  <anchor x="260" y="714" name="top"/>
  <anchor x="480" y="714" name="topright"/>
  <outline>
    <contour>
      <point x="14" y="325" type="line"/>
      <point x="494" y="325" type="line"/>
      <point x="494" y="410" type="line"/>
      <point x="14" y="410" type="line"/>
    </contour>
    <component base="S"/>
  </outline>
</glyph>
<glyph name="uniA7FA" format="2">
  <advance width="500"/>
  <unicode hex="A7FA"/>
  <anchor x="250" y="0" name="bottom"/>
  <anchor x="250" y="546" name="top"/>
  <outline>
    <contour>
      <point x="25" y="0" type="line"/>
      <point x="476" y="0" type="line"/>
      <point x="476" y="546" type="line"/>
      <point x="358" y="546" type="line"/>
      <point x="358" y="103" type="line"/>
      <point x="310" y="103" type="line"/>
      <point x="310" y="546" type="line"/>
      <point x="192" y="546" type="line"/>
      <point x="192" y="103" type="line"/>
      <point x="143" y="103" type="line"/>
      <point x="143" y="546" type="line"/>
      <point x="25" y="546" type="line"/>
    </contour>
  </outline>
</glyph>
<glyph name="uniAB39" format="2">
  <advance width="500"/>
  <unicode hex="AB39"/>
  <anchor x="252" y="0" name="bottom"/>
  <anchor x="252" y="370" name="center"/>
  <anchor x="244" y="760" name="top"/>
  <anchor x="420" y="760" name="topright"/>
  <outline>
    <contour>
      <point x="250" y="197" type="curve" smooth="yes"/>
      <point x="382" y="197"/>
      <point x="461" y="280"/>
      <point x="461" y="389" type="curve" smooth="yes"/>
      <point x="461" y="498"/>
      <point x="382" y="582"/>
      <point x="250" y="582" type="curve" smooth="yes"/>
      <point x="119" y="582"/>
      <point x="39" y="499"/>
      <point x="39" y="389" type="curve" smooth="yes"/>
      <point x="39" y="280"/>
      <point x="117" y="197"/>
    </contour>
    <contour>
      <point x="250" y="269" type="curve" smooth="yes"/>
      <point x="159" y="269"/>
      <point x="114" y="323"/>
      <point x="114" y="389" type="curve" smooth="yes"/>
      <point x="114" y="457"/>
      <point x="158" y="510"/>
      <point x="250" y="510" type="curve" smooth="yes"/>
      <point x="341" y="510"/>
      <point x="386" y="457"/>
      <point x="386" y="389" type="curve" smooth="yes"/>
      <point x="386" y="322"/>
      <point x="341" y="269"/>
    </contour>
    <component base="l" xOffset="-6"/>
  </outline>
</glyph>
<glyph name="uniAB41" format="2">
  <advance width="500"/>
  <unicode hex="AB41"/>
  <anchor x="252" y="546" name="bottom"/>
  <anchor x="252" y="0" name="top"/>
  <outline>
    <contour>
      <point x="273" y="-32" type="line"/>
      <point x="445" y="558" type="line"/>
      <point x="396" y="573" type="line"/>
      <point x="225" y="-17" type="line"/>
    </contour>
    <component base="oe" xScale="-1" yScale="-1" xOffset="502" yOffset="546"/>
  </outline>
</glyph>
<glyph name="uniAB42" format="2">
  <advance width="500"/>
  <unicode hex="AB42"/>
  <anchor x="252" y="546" name="bottom"/>
  <anchor x="252" y="0" name="top"/>
  <outline>
    <contour>
      <point x="243" y="214" type="line"/>
      <point x="432" y="214" type="line"/>
      <point x="432" y="306" type="line"/>
      <point x="243" y="306" type="line"/>
    </contour>
    <component base="oe" xScale="-1" yScale="-1" xOffset="502" yOffset="546"/>
  </outline>
</glyph>
<glyph name="uniAB44" format="2">
  <advance width="500"/>
  <unicode hex="AB44"/>
  <outline>
    <contour>
      <point x="282" y="-83" type="line"/>
      <point x="465" y="589" type="line"/>
      <point x="416" y="602" type="line"/>
      <point x="234" y="-69" type="line"/>
    </contour>
    <component base="uniAB43" xOffset="1"/>
  </outline>
</glyph>
<glyph name="uniAB60" format="2">
  <advance width="500"/>
  <unicode hex="AB60"/>
  <outline>
    <contour>
      <point x="30" y="0" type="line"/>
      <point x="130" y="0" type="line"/>
      <point x="130" y="547" type="line"/>
      <point x="30" y="547" type="line"/>
    </contour>
    <contour>
      <point x="197" y="0" type="line"/>
      <point x="328" y="0" type="line" smooth="yes"/>
      <point x="431" y="0"/>
      <point x="490" y="56"/>
      <point x="490" y="174" type="curve" smooth="yes"/>
      <point x="490" y="288"/>
      <point x="431" y="339"/>
      <point x="316" y="339" type="curve" smooth="yes"/>
      <point x="297" y="339" type="line"/>
      <point x="297" y="547" type="line"/>
      <point x="197" y="547" type="line"/>
    </contour>
    <contour>
      <point x="297" y="93" type="line"/>
      <point x="297" y="245" type="line"/>
      <point x="319" y="245" type="line" smooth="yes"/>
      <point x="368" y="245"/>
      <point x="389" y="218"/>
      <point x="389" y="168" type="curve" smooth="yes"/>
      <point x="389" y="119"/>
      <point x="364" y="93"/>
      <point x="320" y="93" type="curve" smooth="yes"/>
    </contour>
  </outline>
</glyph>
<glyph name="f_f_i" format="2">
  <advance width="1000"/>
  <unicode hex="FB03"/>
  <anchor x="856" y="0" name="bottom _3"/>
  <anchor x="161" y="0" name="bottom_1"/>
  <anchor x="512" y="0" name="bottom_2"/>
  <anchor x="335" y="0" name="caret_1"/>
  <anchor x="669" y="0" name="caret_2"/>
  <anchor x="161" y="776" name="top_1"/>
  <anchor x="511" y="776" name="top_2"/>
  <anchor x="856" y="776" name="top_3"/>
  <outline>
    <contour>
      <point x="90" y="0" type="line"/>
      <point x="230" y="0" type="line"/>
      <point x="230" y="426" type="line"/>
      <point x="435" y="426" type="line"/>
      <point x="435" y="0" type="line"/>
      <point x="575" y="0" type="line"/>
      <point x="575" y="426" type="line"/>
      <point x="780" y="426" type="line"/>
      <point x="780" y="0" type="line"/>
      <point x="925" y="0" type="line"/>
      <point x="925" y="546" type="line"/>
      <point x="575" y="546" type="line"/>
      <point x="575" y="566" type="line" smooth="yes"/>
      <point x="575" y="619"/>
      <point x="601" y="642"/>
      <point x="645" y="642" type="curve" smooth="yes"/>
      <point x="666" y="642"/>
      <point x="685" y="637"/>
      <point x="714" y="628" type="curve"/>
      <point x="746" y="742" type="line"/>
      <point x="710" y="755"/>
      <point x="676" y="765"/>
      <point x="628" y="765" type="curve" smooth="yes"/>
      <point x="504" y="765"/>
      <point x="435" y="708"/>
      <point x="435" y="581" type="curve" smooth="yes"/>
      <point x="435" y="546" type="line"/>
      <point x="230" y="546" type="line"/>
      <point x="230" y="566" type="line" smooth="yes"/>
      <point x="230" y="614"/>
      <point x="261" y="642"/>
      <point x="308" y="642" type="curve" smooth="yes"/>
      <point x="328" y="642"/>
      <point x="355" y="639"/>
      <point x="389" y="628" type="curve"/>
      <point x="427" y="742" type="line"/>
      <point x="378" y="757"/>
      <point x="331" y="765"/>
      <point x="279" y="765" type="curve" smooth="yes"/>
      <point x="159" y="765"/>
      <point x="90" y="708"/>
      <point x="90" y="581" type="curve" smooth="yes"/>
      <point x="90" y="546" type="line"/>
      <point x="10" y="536" type="line"/>
      <point x="10" y="426" type="line"/>
      <point x="90" y="426" type="line"/>
    </contour>
    <contour>
      <point x="851" y="608" type="curve" smooth="yes"/>
      <point x="911" y="608"/>
      <point x="941" y="638"/>
      <point x="941" y="693" type="curve" smooth="yes"/>
      <point x="941" y="747"/>
      <point x="912" y="776"/>
      <point x="853" y="776" type="curve" smooth="yes"/>
      <point x="793" y="776"/>
      <point x="764" y="747"/>
      <point x="764" y="692" type="curve" smooth="yes"/>
      <point x="764" y="636"/>
      <point x="794" y="608"/>
    </contour>
  </outline>
</glyph>
<glyph name="f_f_l" format="2">
  <advance width="1000"/>
  <unicode hex="FB04"/>
  <anchor x="856" y="0" name="bottom _3"/>
  <anchor x="161" y="0" name="bottom_1"/>
  <anchor x="512" y="0" name="bottom_2"/>
  <anchor x="335" y="0" name="caret_1"/>
  <anchor x="681" y="0" name="caret_2"/>
  <anchor x="161" y="776" name="top_1"/>
  <anchor x="511" y="776" name="top_2"/>
  <anchor x="856" y="776" name="top_3"/>
  <outline>
    <contour>
      <point x="90" y="0" type="line"/>
      <point x="230" y="0" type="line"/>
      <point x="230" y="426" type="line"/>
      <point x="435" y="426" type="line"/>
      <point x="435" y="0" type="line"/>
      <point x="575" y="0" type="line"/>
      <point x="575" y="426" type="line"/>
      <point x="724" y="426" type="line"/>
      <point x="724" y="546" type="line"/>
      <point x="575" y="546" type="line"/>
      <point x="575" y="566" type="line" smooth="yes"/>
      <point x="575" y="619"/>
      <point x="601" y="642"/>
      <point x="645" y="642" type="curve" smooth="yes"/>
      <point x="666" y="642"/>
      <point x="685" y="637"/>
      <point x="714" y="628" type="curve"/>
      <point x="746" y="742" type="line"/>
      <point x="710" y="755"/>
      <point x="676" y="765"/>
      <point x="628" y="765" type="curve" smooth="yes"/>
      <point x="504" y="765"/>
      <point x="435" y="708"/>
      <point x="435" y="581" type="curve" smooth="yes"/>
      <point x="435" y="546" type="line"/>
      <point x="230" y="546" type="line"/>
      <point x="230" y="566" type="line" smooth="yes"/>
      <point x="230" y="614"/>
      <point x="261" y="642"/>
      <point x="308" y="642" type="curve" smooth="yes"/>
      <point x="328" y="642"/>
      <point x="355" y="639"/>
      <point x="389" y="628" type="curve"/>
      <point x="427" y="742" type="line"/>
      <point x="378" y="757"/>
      <point x="331" y="765"/>
      <point x="279" y="765" type="curve" smooth="yes"/>
      <point x="159" y="765"/>
      <point x="90" y="708"/>
      <point x="90" y="581" type="curve" smooth="yes"/>
      <point x="90" y="546" type="line"/>
      <point x="10" y="536" type="line"/>
      <point x="10" y="426" type="line"/>
      <point x="90" y="426" type="line"/>
    </contour>
    <contour>
      <point x="780" y="0" type="line"/>
      <point x="925" y="0" type="line"/>
      <point x="925" y="760" type="line"/>
      <point x="780" y="760" type="line"/>
    </contour>
  </outline>
</glyph>
<glyph name="longs_t" format="2">
  <advance width="500"/>
  <unicode hex="FB05"/>
  <anchor x="124" y="0" name="bottom"/>
  <anchor x="111" y="0" name="bottom_1"/>
  <anchor x="341" y="0" name="bottom_2"/>
  <anchor x="232" y="0" name="caret_1"/>
  <anchor x="340" y="282" name="center"/>
  <anchor x="199" y="765" name="top"/>
  <anchor x="111" y="765" name="top_1"/>
  <anchor x="341" y="765" name="top_2"/>
  <anchor x="499" y="682" name="topright"/>
  <outline>
    <contour>
      <point x="394" y="-10" type="curve" smooth="yes"/>
      <point x="431" y="-10"/>
      <point x="459" y="0"/>
      <point x="476" y="14" type="curve"/>
      <point x="476" y="124" type="line"/>
      <point x="462" y="115"/>
      <point x="444" y="109"/>
      <point x="430" y="109" type="curve" smooth="yes"/>
      <point x="407" y="109"/>
      <point x="401" y="125"/>
      <point x="401" y="179" type="curve" smooth="yes"/>
      <point x="401" y="432" type="line"/>
      <point x="476" y="432" type="line"/>
      <point x="476" y="546" type="line"/>
      <point x="403" y="546" type="line"/>
      <point x="403" y="680" type="line"/>
      <point x="383" y="710"/>
      <point x="327" y="765"/>
      <point x="223" y="765" type="curve" smooth="yes"/>
      <point x="106" y="765"/>
      <point x="45" y="694"/>
      <point x="45" y="564" type="curve" smooth="yes"/>
      <point x="45" y="0" type="line"/>
      <point x="173" y="0" type="line"/>
      <point x="173" y="573" type="line" smooth="yes"/>
      <point x="173" y="629"/>
      <point x="188" y="652"/>
      <point x="223" y="652" type="curve" smooth="yes"/>
      <point x="249" y="652"/>
      <point x="263" y="639"/>
      <point x="273" y="626" type="curve"/>
      <point x="273" y="546" type="line"/>
      <point x="229" y="500" type="line"/>
      <point x="229" y="432" type="line"/>
      <point x="273" y="432" type="line"/>
      <point x="273" y="152" type="line" smooth="yes"/>
      <point x="273" y="54"/>
      <point x="301" y="-10"/>
    </contour>
  </outline>
</glyph>
<glyph name="s_t" format="2">
  <advance width="1000"/>
  <unicode hex="FB06"/>
  <anchor x="256" y="0" name="bottom"/>
  <anchor x="243" y="0" name="bottom_1"/>
  <anchor x="707" y="0" name="bottom_2"/>
  <anchor x="534" y="0" name="caret_1"/>
  <anchor x="705" y="282" name="center"/>
  <anchor x="256" y="546" name="top"/>
  <anchor x="243" y="546" name="top_1"/>
  <anchor x="707" y="765" name="top_2"/>
  <anchor x="980" y="682" name="topright"/>
  <outline>
    <contour>
      <point x="816" y="-10" type="curve" smooth="yes"/>
      <point x="866" y="-10"/>
      <point x="918" y="-1"/>
      <point x="965" y="14" type="curve"/>
      <point x="965" y="129" type="line"/>
      <point x="919" y="115"/>
      <point x="880" y="109"/>
      <point x="849" y="109" type="curve" smooth="yes"/>
      <point x="791" y="109"/>
      <point x="766" y="129"/>
      <point x="766" y="192" type="curve" smooth="yes"/>
      <point x="766" y="432" type="line"/>
      <point x="962" y="432" type="line"/>
      <point x="962" y="546" type="line"/>
      <point x="770" y="546" type="line"/>
      <point x="770" y="676" type="line"/>
      <point x="714" y="726"/>
      <point x="611" y="765"/>
      <point x="493" y="765" type="curve" smooth="yes"/>
      <point x="327" y="765"/>
      <point x="247" y="692"/>
      <point x="247" y="609" type="curve" smooth="yes"/>
      <point x="247" y="568"/>
      <point x="267" y="537"/>
      <point x="289" y="514" type="curve"/>
      <point x="428" y="514" type="line"/>
      <point x="381" y="536"/>
      <point x="371" y="559"/>
      <point x="371" y="582" type="curve"/>
      <point x="371" y="630"/>
      <point x="416" y="652"/>
      <point x="484" y="652" type="curve" smooth="yes"/>
      <point x="546" y="652"/>
      <point x="606" y="634"/>
      <point x="638" y="610" type="curve"/>
      <point x="638" y="546" type="line"/>
      <point x="530" y="500" type="line"/>
      <point x="530" y="432" type="line"/>
      <point x="638" y="432" type="line"/>
      <point x="638" y="182" type="line" smooth="yes"/>
      <point x="638" y="54"/>
      <point x="686" y="-10"/>
    </contour>
    <contour>
      <point x="220" y="-10" type="curve" smooth="yes"/>
      <point x="365" y="-10"/>
      <point x="440" y="52"/>
      <point x="440" y="157" type="curve" smooth="yes"/>
      <point x="440" y="241"/>
      <point x="392" y="282"/>
      <point x="311" y="318" type="curve" smooth="yes"/>
      <point x="214" y="361"/>
      <point x="190" y="372"/>
      <point x="190" y="401" type="curve" smooth="yes"/>
      <point x="190" y="432"/>
      <point x="216" y="446"/>
      <point x="261" y="446" type="curve" smooth="yes"/>
      <point x="301" y="446"/>
      <point x="348" y="435"/>
      <point x="388" y="414" type="curve"/>
      <point x="428" y="514" type="line"/>
      <point x="373" y="543"/>
      <point x="319" y="556"/>
      <point x="259" y="556" type="curve" smooth="yes"/>
      <point x="138" y="556"/>
      <point x="60" y="501"/>
      <point x="60" y="398" type="curve" smooth="yes"/>
      <point x="60" y="316"/>
      <point x="109" y="281"/>
      <point x="185" y="242" type="curve" smooth="yes"/>
      <point x="263" y="202"/>
      <point x="310" y="190"/>
      <point x="310" y="151" type="curve" smooth="yes"/>
      <point x="310" y="120"/>
      <point x="282" y="101"/>
      <point x="228" y="101" type="curve" smooth="yes"/>
      <point x="178" y="101"/>
      <point x="112" y="117"/>
      <point x="65" y="141" type="curve"/>
      <point x="65" y="22" type="line"/>
      <point x="113" y="-1"/>
      <point x="165" y="-10"/>
    </contour>
  </outline>
</glyph>
<glyph name="aogonek.loclNAV" format="2">
  <advance width="500"/>
  <anchor x="256" y="0" name="bottom"/>
  <anchor x="450" y="10" name="ogonek"/>
  <anchor x="265" y="546" name="top"/>
  <anchor x="480" y="546" name="topright"/>
  <outline>
    <contour>
      <point x="291" y="-234" type="curve" smooth="yes"/>
      <point x="318" y="-234"/>
      <point x="339" y="-229"/>
      <point x="352" y="-222" type="curve"/>
      <point x="352" y="-143" type="line"/>
      <point x="344" y="-147"/>
      <point x="333" y="-151"/>
      <point x="319" y="-151" type="curve" smooth="yes"/>
      <point x="290" y="-151"/>
      <point x="275" y="-135"/>
      <point x="275" y="-102" type="curve" smooth="yes"/>
      <point x="275" y="-59"/>
      <point x="288" y="-2"/>
      <point x="329" y="73" type="curve"/>
      <point x="264" y="88" type="line"/>
      <point x="211" y="25"/>
      <point x="179" y="-58"/>
      <point x="179" y="-124" type="curve" smooth="yes"/>
      <point x="179" y="-196"/>
      <point x="216" y="-234"/>
    </contour>
    <component base="a"/>
  </outline>
</glyph>
<glyph name="lslash.sc" format="2">
  <advance width="500"/>
  <anchor x="298" y="0" name="bottom"/>
  <anchor x="181" y="582" name="top"/>
  <anchor x="184" y="291" name="center"/>
  <anchor x="368" y="582" name="topright"/>
  <outline>
    <contour>
      <point x="75" y="181" type="line"/>
      <point x="346" y="372" type="line"/>
      <point x="285" y="452" type="line"/>
      <point x="19" y="264" type="line"/>
    </contour>
    <component base="l.sc" xOffset="30"/>
  </outline>
</glyph>
<glyph name="oslash.sc" format="2">
  <advance width="500"/>
  <anchor x="250" y="-54" name="bottom"/>
  <anchor x="250" y="617" name="top"/>
  <anchor x="250" y="291" name="center"/>
  <anchor x="242" y="10" name="ogonek"/>
  <anchor x="250" y="612" name="topleft"/>
  <anchor x="250" y="582" name="topright"/>
  <outline>
    <contour>
      <point x="124" y="-54" type="line"/>
      <point x="444" y="587" type="line"/>
      <point x="381" y="617" type="line"/>
      <point x="61" y="-24" type="line"/>
    </contour>
    <component base="o.sc"/>
  </outline>
</glyph>
<glyph name="q.sc" format="2">
  <advance width="500"/>
  <anchor x="250" y="-138" name="bottom"/>
  <anchor x="250" y="582" name="top"/>
  <anchor x="480" y="582" name="topright"/>
  <anchor x="250" y="291" name="center"/>
  <anchor x="242" y="10" name="ogonek"/>
  <anchor x="250" y="612" name="topleft"/>
  <outline>
    <contour>
      <point x="331" y="-138" type="line"/>
      <point x="478" y="-138" type="line"/>
      <point x="364" y="27" type="line"/>
      <point x="252" y="-6" type="line"/>
    </contour>
    <component base="o.sc"/>
  </outline>
</glyph>
